<svg xmlns="http://www.w3.org/2000/svg" xmlns:xlink="http://www.w3.org/1999/xlink" width="2048" zoomAndPan="magnify" viewBox="0 0 1536 1535.999932" height="2048" preserveAspectRatio="xMidYMid meet" version="1.0"><path fill="#00357a" d="M 753.492188 156.160156 C 762.414062 156.160156 770.953125 156.34375 779.785156 157.121094 L 781.699219 157.285156 C 797.738281 158.695312 813.640625 161 829.550781 163.460938 C 832.058594 163.847656 834.566406 164.234375 837.078125 164.617188 C 886.15625 172.160156 934.589844 182.917969 982.1875 197.121094 L 984.078125 197.683594 C 994.566406 200.824219 1005.03125 204.046875 1015.464844 207.359375 L 1017.460938 207.988281 C 1056.417969 220.335938 1094.484375 235.976562 1131.425781 253.441406 C 1132.722656 254.054688 1134.019531 254.664062 1135.316406 255.273438 C 1144.035156 259.359375 1152.660156 263.535156 1161.121094 268.132812 C 1163.617188 269.472656 1166.144531 270.761719 1168.695312 272 C 1183.796875 279.519531 1198.242188 288.097656 1212.605469 296.921875 C 1216.339844 299.210938 1220.09375 301.464844 1223.859375 303.703125 C 1231.421875 308.203125 1238.875 312.84375 1246.21875 317.691406 C 1248.363281 319.105469 1250.511719 320.507812 1252.65625 321.914062 C 1254.71875 323.261719 1256.777344 324.613281 1258.832031 325.972656 C 1259.84375 326.636719 1260.855469 327.300781 1261.871094 327.964844 C 1277.570312 338.222656 1277.570312 338.222656 1280.070312 343.15625 C 1281.042969 346.195312 1281.152344 349.066406 1281.203125 352.226562 L 1281.25 354.21875 C 1281.304688 356.410156 1281.339844 358.601562 1281.378906 360.789062 L 1281.476562 365.503906 C 1281.824219 383.277344 1281.835938 401.058594 1281.832031 418.835938 C 1281.832031 423.78125 1281.835938 428.722656 1281.839844 433.664062 C 1281.84375 443.300781 1281.847656 452.9375 1281.847656 462.574219 C 1281.851562 473.289062 1281.855469 484.007812 1281.859375 494.722656 C 1281.863281 510.652344 1281.867188 526.582031 1281.867188 542.515625 L 1281.867188 558.871094 C 1281.863281 577.726562 1281.871094 596.578125 1281.882812 615.433594 C 1281.894531 636.753906 1281.902344 658.074219 1281.902344 679.394531 C 1281.902344 690.628906 1281.90625 701.867188 1281.914062 713.101562 C 1281.976562 794.019531 1281.976562 794.019531 1280.949219 826.339844 C 1280.914062 827.398438 1280.882812 828.457031 1280.847656 829.546875 C 1280.25 847.746094 1279.273438 865.988281 1276.480469 884 L 1276.210938 885.742188 C 1269 932.179688 1252.839844 977.207031 1229.652344 1018.027344 L 1228.535156 1020.007812 C 1215.710938 1042.613281 1200.230469 1063.816406 1183.574219 1083.734375 L 1182.433594 1085.09375 C 1176.210938 1092.515625 1169.714844 1099.636719 1163.066406 1106.675781 C 1161.824219 1108.011719 1160.589844 1109.355469 1159.367188 1110.707031 C 1153.453125 1117.234375 1147.332031 1123.519531 1141.09375 1129.738281 C 1139.457031 1131.371094 1137.824219 1133.007812 1136.191406 1134.644531 C 1131.554688 1139.285156 1126.933594 1143.890625 1121.933594 1148.144531 C 1119.113281 1150.570312 1116.453125 1153.167969 1113.757812 1155.734375 C 1109.242188 1160 1104.664062 1164.085938 1099.800781 1167.960938 C 1096.851562 1170.355469 1094.003906 1172.855469 1091.148438 1175.359375 C 1085.609375 1180.195312 1079.917969 1184.773438 1074.105469 1189.265625 C 1072.175781 1190.765625 1070.25 1192.269531 1068.335938 1193.785156 C 1056.226562 1203.328125 1044.058594 1212.785156 1031.679688 1221.972656 L 1029.742188 1223.414062 C 1021.53125 1229.515625 1013.269531 1235.542969 1004.886719 1241.40625 C 1002.292969 1243.222656 999.703125 1245.046875 997.117188 1246.871094 C 987.089844 1253.945312 976.929688 1260.792969 966.664062 1267.519531 L 962.039062 1270.558594 C 957.664062 1273.425781 953.289062 1276.289062 948.90625 1279.148438 L 947.167969 1280.28125 C 934.59375 1288.476562 921.835938 1296.332031 908.929688 1304 C 905.269531 1306.175781 901.625 1308.375 897.980469 1310.570312 C 888.28125 1316.417969 878.519531 1322.15625 868.691406 1327.785156 L 865.894531 1329.390625 C 859.757812 1332.90625 853.617188 1336.417969 847.472656 1339.917969 C 845.21875 1341.203125 842.964844 1342.488281 840.714844 1343.78125 C 834.976562 1347.058594 829.1875 1350.164062 823.253906 1353.078125 C 818.601562 1355.371094 814 1357.761719 809.402344 1360.164062 C 800.589844 1364.769531 791.75 1369.320312 782.828125 1373.707031 L 780.210938 1375.023438 C 775.957031 1377.089844 772 1378.839844 767.234375 1379.121094 C 763.992188 1378.878906 761.386719 1377.65625 758.507812 1376.214844 L 756.542969 1375.285156 C 755.132812 1374.613281 753.726562 1373.9375 752.320312 1373.25 C 749.988281 1372.121094 747.644531 1371.007812 745.289062 1369.914062 C 735.578125 1365.359375 725.996094 1360.546875 716.546875 1355.476562 C 713.941406 1354.082031 711.335938 1352.691406 708.730469 1351.308594 C 679.410156 1335.703125 650.476562 1319.417969 622.078125 1302.1875 L 617.996094 1299.71875 C 609.503906 1294.574219 601.117188 1289.269531 592.75 1283.921875 C 589.617188 1281.917969 586.476562 1279.925781 583.328125 1277.945312 C 562.050781 1264.546875 541.371094 1250.191406 521.023438 1235.414062 C 517.363281 1232.757812 513.675781 1230.136719 509.960938 1227.550781 C 502.199219 1222.136719 494.726562 1216.398438 487.292969 1210.542969 C 484.804688 1208.597656 482.300781 1206.664062 479.785156 1204.746094 C 462.503906 1191.460938 445.554688 1177.746094 429.410156 1163.09375 C 427.710938 1161.5625 425.996094 1160.054688 424.265625 1158.558594 C 415.035156 1150.492188 406.234375 1141.988281 397.554688 1133.332031 C 395.761719 1131.550781 393.960938 1129.773438 392.160156 1128 L 388.710938 1124.5625 L 387.089844 1122.972656 L 385.59375 1121.46875 L 384.28125 1120.167969 C 382.890625 1118.390625 382.242188 1116.554688 381.441406 1114.453125 C 411.910156 1114.363281 442.378906 1114.300781 472.847656 1114.265625 L 474.789062 1114.261719 C 485.15625 1114.25 495.523438 1114.222656 505.894531 1114.191406 C 516.535156 1114.15625 527.179688 1114.136719 537.824219 1114.132812 C 544.390625 1114.128906 550.953125 1114.113281 557.519531 1114.085938 C 562.554688 1114.066406 567.59375 1114.0625 572.632812 1114.066406 C 574.699219 1114.066406 576.761719 1114.058594 578.824219 1114.046875 C 581.648438 1114.027344 584.46875 1114.035156 587.289062 1114.042969 L 589.75 1114.011719 C 596.386719 1114.070312 601.675781 1115.960938 607.414062 1119.234375 C 612.625 1123.007812 617.414062 1127.089844 622.078125 1131.519531 L 624.375 1133.675781 C 645.511719 1154.125 662.117188 1182.4375 670.179688 1210.605469 C 672.148438 1218.007812 673.445312 1225.433594 674.132812 1233.066406 L 674.378906 1235.472656 C 674.929688 1241.609375 674.945312 1247.539062 674.6875 1253.691406 C 673.945312 1267.375 673.945312 1267.375 675.839844 1280.851562 C 677.445312 1283.523438 678.78125 1284.867188 681.363281 1286.578125 C 684.863281 1288.238281 688.304688 1289.308594 692.054688 1290.238281 C 694.351562 1291.042969 696.609375 1291.921875 698.878906 1292.800781 L 698.027344 1291.09375 C 697.933594 1288.480469 697.882812 1285.867188 697.878906 1283.253906 L 697.859375 1280.789062 C 697.847656 1279.019531 697.839844 1277.246094 697.832031 1275.472656 C 697.816406 1272.660156 697.796875 1269.847656 697.773438 1267.035156 C 697.714844 1259.03125 697.664062 1251.027344 697.621094 1243.027344 C 697.589844 1238.132812 697.558594 1233.238281 697.515625 1228.347656 C 697.503906 1226.488281 697.492188 1224.632812 697.484375 1222.773438 C 697.445312 1212.949219 697.195312 1203.507812 695.464844 1193.8125 C 695.160156 1191.539062 694.886719 1189.265625 694.613281 1186.988281 L 692.386719 1186.296875 C 683.730469 1183.253906 676.03125 1178.4375 669.867188 1171.625 C 666 1166.5 663.25 1160.914062 662.1875 1154.558594 C 661.566406 1147.527344 661.695312 1141.0625 664.46875 1134.5 C 667.777344 1128.277344 672.5625 1122.699219 678.398438 1118.71875 C 683.578125 1116.054688 688.75 1113.933594 694.613281 1113.601562 L 696.320312 1113.46875 C 702.695312 1113.183594 708.933594 1114.53125 714.742188 1117.160156 C 720.085938 1120.039062 724.3125 1123.105469 727.574219 1128.320312 C 731.523438 1134.773438 733.558594 1140.683594 734.078125 1148.265625 C 733.960938 1155.191406 731.9375 1162.074219 728.40625 1168.011719 C 726.1875 1171.113281 723.609375 1173.859375 720.972656 1176.605469 C 719.195312 1178.40625 719.195312 1178.40625 718.507812 1181.011719 C 718.6875 1182.839844 718.6875 1182.839844 719.140625 1184.824219 L 719.601562 1187.109375 L 720.105469 1189.492188 C 722.503906 1200.871094 722.90625 1212.054688 722.996094 1223.644531 C 723.015625 1226.066406 723.035156 1228.488281 723.0625 1230.910156 C 723.113281 1236.074219 723.15625 1241.234375 723.199219 1246.398438 L 723.289062 1256.675781 L 723.3125 1259.207031 C 723.355469 1264.140625 723.414062 1269.074219 723.492188 1274.007812 L 723.5625 1278.664062 C 723.621094 1283.191406 723.601562 1287.71875 723.5 1292.25 C 723.304688 1299.84375 723.304688 1299.84375 724.480469 1307.304688 C 726.199219 1310.0625 726.199219 1310.0625 728.773438 1311.78125 C 731.449219 1313.082031 731.449219 1313.082031 734.292969 1314.027344 L 737.046875 1315.238281 C 738.753906 1315.980469 740.476562 1316.691406 742.222656 1317.347656 C 745.75 1318.703125 749.1875 1320.277344 752.640625 1321.8125 L 753.492188 1115.304688 C 755.550781 1114.277344 756.78125 1114.367188 759.082031 1114.398438 L 761.589844 1114.421875 L 764.375 1114.453125 C 795.945312 1115.273438 795.945312 1115.273438 826.878906 1110.1875 C 827.433594 1110.03125 827.984375 1109.878906 828.554688 1109.71875 C 851.082031 1103.316406 872.277344 1090.8125 892.585938 1079.464844 L 894.835938 1078.210938 C 917.421875 1065.546875 939.792969 1052.214844 960 1035.945312 L 962.542969 1033.898438 C 964.835938 1032.035156 967.117188 1030.15625 969.386719 1028.265625 L 971.175781 1026.800781 C 974.09375 1024.371094 976.441406 1021.902344 978.773438 1018.878906 C 980.964844 1017.785156 982.976562 1017.589844 985.410156 1017.628906 C 987.773438 1018.125 989.015625 1019.003906 990.878906 1020.53125 C 994.246094 1023.816406 996.664062 1027.304688 998.398438 1031.679688 C 999.148438 1034.613281 999.148438 1034.613281 998.398438 1037.652344 C 994.636719 1043 989.761719 1047.203125 984.601562 1051.160156 C 982.84375 1052.507812 981.109375 1053.886719 979.398438 1055.292969 C 950.703125 1078.851562 918.023438 1098.257812 884.746094 1114.539062 C 882.707031 1115.550781 880.683594 1116.597656 878.65625 1117.640625 C 872.109375 1120.984375 865.441406 1124.070312 858.746094 1127.101562 C 857.171875 1127.816406 855.601562 1128.535156 854.03125 1129.253906 C 844.316406 1133.621094 834.347656 1137.40625 823.839844 1139.359375 L 821.664062 1139.777344 C 813.425781 1141.21875 805.085938 1141.667969 796.746094 1142.105469 L 793.535156 1142.277344 L 790.640625 1142.414062 L 788.480469 1142.613281 L 787.625 1143.464844 C 787.417969 1145.703125 787.265625 1147.921875 787.152344 1150.164062 L 787.042969 1152.253906 C 786.671875 1159.960938 786.660156 1167.660156 786.675781 1175.375 L 786.675781 1180.148438 C 786.675781 1184.417969 786.679688 1188.683594 786.6875 1192.953125 C 786.691406 1197.429688 786.691406 1201.910156 786.695312 1206.390625 C 786.695312 1214.847656 786.703125 1223.304688 786.710938 1231.765625 C 786.71875 1241.402344 786.726562 1251.042969 786.730469 1260.683594 C 786.738281 1280.492188 786.753906 1300.296875 786.773438 1320.105469 C 787.871094 1319.703125 788.964844 1319.296875 790.058594 1318.894531 L 791.910156 1318.210938 C 793.816406 1317.460938 795.5 1316.558594 797.222656 1315.460938 L 799.011719 1314.328125 L 800.800781 1313.171875 L 802.65625 1311.996094 C 805.53125 1310.273438 805.53125 1310.273438 808.105469 1308.160156 C 808.203125 1305.464844 808.246094 1302.789062 808.253906 1300.097656 L 808.273438 1297.527344 C 808.285156 1295.675781 808.292969 1293.824219 808.304688 1291.972656 C 808.316406 1289.027344 808.335938 1286.082031 808.359375 1283.140625 C 808.417969 1274.765625 808.46875 1266.390625 808.515625 1258.019531 C 808.542969 1252.898438 808.574219 1247.777344 808.617188 1242.660156 C 808.628906 1240.722656 808.640625 1238.78125 808.648438 1236.839844 C 808.769531 1205.632812 808.769531 1205.632812 812.800781 1194.453125 L 813.457031 1192.570312 C 816.914062 1183.296875 822.785156 1174.886719 830.011719 1168.140625 C 840.117188 1159.832031 852.59375 1154.71875 864.613281 1149.808594 C 881.445312 1142.914062 897.441406 1135.25 913.183594 1126.109375 C 915.5 1124.765625 917.824219 1123.441406 920.148438 1122.117188 C 938.367188 1111.640625 956.101562 1099.917969 972.800781 1087.148438 L 975.691406 1084.960938 C 981.664062 1080.421875 987.507812 1075.730469 993.28125 1070.933594 L 995.851562 1068.847656 C 1006.191406 1060.375 1017.210938 1051.011719 1024 1039.359375 L 1025.132812 1037.507812 C 1026.59375 1034.914062 1027.390625 1033.074219 1027.519531 1030.082031 C 1026.339844 1026.804688 1024.621094 1024.09375 1022.773438 1021.152344 C 1019.324219 1015.269531 1017.070312 1009.070312 1016.960938 1002.238281 C 1017.046875 995.816406 1017.902344 989.875 1020.964844 984.152344 C 1025.007812 978.007812 1030.144531 972.976562 1036.375 969.066406 C 1043.894531 965.574219 1051.625 965.316406 1059.839844 965.972656 C 1065.5625 967.027344 1070.453125 968.734375 1075.148438 972.214844 C 1080.691406 976.988281 1084.992188 982.300781 1088 989.011719 C 1090.179688 995.449219 1090.367188 1001.925781 1089.707031 1008.640625 C 1088.539062 1014.453125 1086.46875 1019.519531 1082.675781 1024.105469 C 1077.050781 1030.09375 1071.589844 1034.304688 1063.785156 1036.90625 C 1060.695312 1037.652344 1060.695312 1037.652344 1058.679688 1037.832031 C 1056.320312 1038.097656 1054.367188 1038.476562 1052.160156 1039.359375 C 1050.078125 1041.628906 1048.988281 1044.175781 1047.785156 1046.988281 C 1047.078125 1048.472656 1046.367188 1049.953125 1045.648438 1051.433594 L 1044.617188 1053.601562 C 1037.175781 1068.421875 1022.089844 1082.03125 1009.191406 1092.191406 C 1006.820312 1094.0625 1004.535156 1096.011719 1002.238281 1097.972656 C 995.246094 1103.8125 987.863281 1109.121094 980.480469 1114.453125 L 978.746094 1115.710938 C 974.527344 1118.765625 970.265625 1121.742188 965.972656 1124.695312 L 963.230469 1126.582031 C 948.058594 1136.984375 932.652344 1146.636719 916.480469 1155.414062 L 913.554688 1157.007812 C 899.402344 1164.664062 884.957031 1171.414062 870.179688 1177.761719 C 861.636719 1181.464844 854.628906 1185.183594 848.214844 1192.105469 L 846.9375 1193.460938 C 841.859375 1199.054688 839.199219 1204.980469 837.375 1212.328125 C 831.921875 1237.851562 835.324219 1266.886719 835.414062 1292.800781 L 837.972656 1292.800781 L 837.972656 1291.09375 L 840.628906 1289.777344 L 844.214844 1288 L 845.949219 1287.144531 C 847.167969 1286.539062 848.375 1285.914062 849.574219 1285.277344 C 851.625 1284.265625 851.625 1284.265625 854.152344 1283.371094 C 856.953125 1282.234375 858.851562 1281.269531 861.015625 1279.148438 C 862.308594 1274.597656 862.136719 1270.167969 861.972656 1265.492188 C 861.960938 1264.261719 861.953125 1263.027344 861.949219 1261.796875 C 861.9375 1259.96875 861.925781 1258.136719 861.898438 1256.308594 C 861.703125 1242.675781 863.3125 1229.550781 869.867188 1217.425781 C 872.050781 1213.839844 874.457031 1210.617188 877.226562 1207.464844 L 878.804688 1205.617188 C 888.539062 1195.015625 902.296875 1188.714844 914.765625 1181.90625 C 949.382812 1163 982.835938 1141.519531 1013.761719 1117.011719 L 1016.292969 1115.007812 C 1018.300781 1113.410156 1020.300781 1111.804688 1022.292969 1110.1875 L 1024.46875 1108.429688 C 1039.929688 1095.878906 1054.382812 1082.429688 1068.480469 1068.375 L 1069.75 1067.109375 C 1074.152344 1062.726562 1078.460938 1058.316406 1082.503906 1053.597656 C 1084.09375 1051.742188 1085.753906 1049.953125 1087.414062 1048.160156 C 1091.46875 1043.664062 1095.148438 1038.914062 1098.78125 1034.078125 C 1100.011719 1032.449219 1101.253906 1030.828125 1102.496094 1029.210938 C 1114.113281 1014.957031 1114.113281 1014.957031 1121.28125 998.398438 C 1121.988281 991.113281 1121.8125 985.164062 1118.90625 978.382812 C 1117.199219 974.816406 1115.21875 971.433594 1113.175781 968.054688 C 1104.921875 954.347656 1104.921875 954.347656 1104.726562 948.808594 C 1105.082031 945.34375 1105.828125 942.652344 1107.09375 939.414062 L 1107.78125 937.648438 C 1109.710938 932.792969 1111.890625 928.050781 1114.082031 923.304688 C 1129.878906 889.171875 1129.878906 889.171875 1140.90625 853.332031 L 1141.320312 851.621094 C 1141.605469 849.355469 1141.554688 847.859375 1140.90625 845.652344 C 1138.128906 842.375 1134.878906 839.785156 1131.519531 837.121094 C 1119.203125 826.785156 1119.203125 826.785156 1115.734375 819.679688 C 1112.371094 809.828125 1114.4375 798.804688 1116 788.800781 C 1122.1875 749.128906 1122.285156 709.554688 1116.160156 669.867188 L 1115.648438 666.550781 C 1113.679688 654.324219 1110.652344 642.402344 1107.277344 630.5 L 1106.410156 627.398438 L 1105.625 624.660156 C 1105.054688 622.011719 1104.964844 619.660156 1105.066406 616.960938 C 1108.878906 616.855469 1112.6875 616.777344 1116.5 616.726562 C 1117.796875 616.703125 1119.089844 616.675781 1120.386719 616.636719 C 1122.25 616.585938 1124.117188 616.5625 1125.984375 616.542969 L 1129.382812 616.476562 C 1132.375 616.960938 1132.375 616.960938 1134.820312 618.851562 C 1136.605469 621.179688 1137.390625 622.671875 1138.058594 625.492188 L 1138.664062 627.96875 L 1139.253906 630.613281 L 1139.90625 633.386719 C 1140.546875 636.15625 1141.160156 638.929688 1141.761719 641.707031 L 1142.265625 643.988281 C 1152.804688 692.597656 1153.058594 744.160156 1145.953125 793.28125 C 1145.253906 798.199219 1144.726562 803.136719 1145.175781 808.105469 C 1146.378906 810.84375 1146.378906 810.84375 1148.585938 813.226562 L 1150.09375 815.03125 C 1153.828125 819.402344 1157.851562 823.1875 1162.242188 826.878906 C 1163.632812 828.066406 1165.019531 829.253906 1166.402344 830.453125 L 1168.3125 832.089844 C 1169.984375 833.773438 1170.875 834.875 1171.628906 837.121094 C 1172.101562 870.105469 1150.226562 909.414062 1136.503906 938.75 C 1135.152344 941.808594 1134.632812 944.46875 1134.710938 947.820312 C 1135.542969 955.042969 1140.019531 961.367188 1143.792969 967.398438 C 1147.882812 974.0625 1150.066406 980.792969 1150.4375 988.628906 C 1150.503906 1001.507812 1147.070312 1010.304688 1140.800781 1021.4375 C 1135.160156 1031.199219 1128.34375 1039.984375 1121.28125 1048.746094 L 1119.171875 1051.382812 C 1109.570312 1063.246094 1099.585938 1074.855469 1088.703125 1085.5625 C 1087.136719 1087.160156 1085.671875 1088.808594 1084.214844 1090.507812 C 1079.316406 1096.179688 1073.964844 1101.328125 1068.277344 1106.199219 C 1066.722656 1107.578125 1065.28125 1109.011719 1063.839844 1110.507812 C 1060.683594 1113.71875 1057.214844 1116.484375 1053.707031 1119.308594 C 1051.46875 1121.144531 1049.332031 1123.050781 1047.199219 1125.011719 C 1042.492188 1129.292969 1037.523438 1133.1875 1032.484375 1137.066406 C 1030.769531 1138.390625 1029.058594 1139.71875 1027.347656 1141.050781 C 1019.003906 1147.507812 1010.480469 1153.667969 1001.8125 1159.679688 L 998.46875 1162.015625 C 975.40625 1178.050781 951.566406 1192.835938 926.953125 1206.371094 L 924.078125 1207.957031 C 922.277344 1208.945312 920.46875 1209.929688 918.65625 1210.90625 C 910.816406 1215.207031 902.785156 1220.402344 897.707031 1227.945312 C 892.984375 1236.152344 890.847656 1243.792969 889.921875 1253.121094 L 889.695312 1255.246094 C 889.519531 1256.953125 889.34375 1258.664062 889.175781 1260.375 C 893.566406 1259.289062 896.917969 1257.820312 900.800781 1255.414062 L 902.453125 1254.394531 C 903.652344 1253.65625 904.847656 1252.914062 906.042969 1252.167969 C 907.996094 1250.960938 909.957031 1249.765625 911.921875 1248.582031 C 923.289062 1241.691406 934.28125 1234.289062 945.238281 1226.777344 C 948.65625 1224.433594 952.085938 1222.097656 955.515625 1219.777344 C 965.621094 1212.933594 975.675781 1206.03125 985.601562 1198.933594 L 987.414062 1197.644531 C 998.074219 1190.046875 1008.5 1182.160156 1018.878906 1174.1875 L 1022.0625 1171.753906 C 1024.707031 1169.730469 1027.339844 1167.691406 1029.972656 1165.652344 L 1031.402344 1164.550781 C 1037.59375 1159.769531 1043.644531 1154.859375 1049.558594 1149.734375 C 1052.589844 1147.113281 1055.660156 1144.546875 1058.773438 1142.027344 C 1062.511719 1138.992188 1066.085938 1135.816406 1069.644531 1132.570312 C 1071.78125 1130.671875 1073.980469 1128.878906 1076.214844 1127.09375 C 1080.773438 1123.40625 1085.042969 1119.457031 1089.300781 1115.421875 C 1091.871094 1112.988281 1094.464844 1110.601562 1097.148438 1108.292969 C 1100.820312 1105.09375 1104.285156 1101.71875 1107.730469 1098.28125 L 1109.65625 1096.363281 C 1110.988281 1095.035156 1112.324219 1093.703125 1113.65625 1092.371094 C 1115.667969 1090.359375 1117.6875 1088.355469 1119.707031 1086.347656 C 1126.320312 1079.761719 1132.585938 1073.164062 1138.347656 1065.8125 C 1139.753906 1064.195312 1141.203125 1062.632812 1142.667969 1061.066406 C 1146.5625 1056.820312 1150.171875 1052.4375 1153.707031 1047.894531 L 1156.398438 1044.484375 C 1167.828125 1029.953125 1178.382812 1015.152344 1187.839844 999.253906 L 1188.921875 997.449219 C 1213.355469 956.28125 1232.035156 903.261719 1233.132812 854.792969 C 1233.152344 851.835938 1233.140625 848.878906 1233.121094 845.917969 L 1233.109375 842.839844 C 1233.097656 840.363281 1233.085938 837.890625 1233.066406 835.414062 C 1229.964844 838.15625 1228.148438 841.238281 1226.34375 844.910156 L 1225.449219 846.722656 C 1222.492188 852.886719 1220.378906 859.253906 1218.375 865.78125 C 1217.308594 869.257812 1216.203125 872.71875 1215.101562 876.179688 L 1214.445312 878.25 C 1207.570312 899.917969 1199.636719 921.691406 1189.546875 942.078125 C 1188.96875 943.304688 1188.394531 944.53125 1187.816406 945.757812 L 1186.027344 949.492188 L 1185.21875 951.234375 C 1183.929688 953.863281 1182.679688 955.773438 1180.554688 957.804688 C 1178.453125 959.148438 1178.453125 959.148438 1175.679688 959.574219 C 1171.597656 959.027344 1168.355469 957.792969 1164.800781 955.734375 C 1162.0625 953.40625 1160.191406 951.367188 1158.828125 948.054688 C 1158.523438 943.835938 1159.648438 940.074219 1161.425781 936.289062 C 1162.1875 934.785156 1162.957031 933.285156 1163.734375 931.785156 C 1177.757812 903.59375 1187.46875 873.574219 1196.332031 843.429688 L 1197.121094 840.765625 C 1197.597656 839.148438 1198.070312 837.53125 1198.53125 835.910156 C 1201.09375 827.246094 1205.007812 820.074219 1210.878906 813.226562 L 1212.140625 811.660156 C 1215.34375 808.03125 1219.09375 805.800781 1223.304688 803.519531 L 1224.953125 802.625 C 1228.246094 800.921875 1231.128906 800.097656 1234.773438 799.574219 C 1234.832031 785.335938 1234.878906 771.097656 1234.90625 756.859375 C 1234.917969 750.246094 1234.9375 743.628906 1234.964844 737.015625 C 1235.265625 695.265625 1235.265625 695.265625 1232.214844 653.652344 L 1231.917969 651.039062 C 1231.390625 646.464844 1230.742188 641.925781 1229.972656 637.386719 L 1229.652344 635.429688 C 1217.71875 562.8125 1188.378906 491.316406 1138.71875 428.640625 C 1137.460938 427.125 1136.199219 425.613281 1134.933594 424.105469 L 1132.734375 421.457031 C 1124.59375 411.691406 1115.957031 402.5 1106.988281 393.492188 L 1104.9375 391.433594 C 1100.867188 387.367188 1096.644531 383.46875 1092.265625 379.734375 C 1091.40625 378.984375 1090.542969 378.234375 1089.683594 377.488281 C 1082.769531 371.566406 1075.621094 366 1068.351562 360.523438 C 1066.839844 359.382812 1065.332031 358.234375 1063.828125 357.082031 C 1058.113281 352.730469 1052.234375 348.617188 1046.1875 344.746094 L 1044.332031 343.558594 C 1027.875 333.097656 1010.949219 323.171875 993.28125 314.878906 L 991.605469 314.089844 C 972.917969 305.363281 953.585938 298.332031 933.992188 291.964844 C 928.269531 290.105469 922.558594 288.214844 916.902344 286.152344 L 914.210938 285.175781 L 912.214844 284.160156 C 911.359375 281.601562 911.359375 281.601562 911.585938 279.90625 L 912.058594 277.976562 L 912.585938 275.824219 L 913.171875 273.546875 L 913.765625 271.230469 C 917.101562 258.601562 917.101562 258.601562 919.894531 254.292969 C 921.808594 253.566406 923.097656 253.410156 925.128906 253.691406 C 925.789062 253.863281 926.445312 254.03125 927.125 254.207031 L 929.414062 254.792969 L 931.894531 255.464844 L 934.515625 256.167969 C 961.660156 263.613281 987.804688 274.03125 1012.90625 286.71875 L 1015.414062 287.984375 C 1021.160156 290.90625 1026.859375 293.910156 1032.53125 296.960938 L 1034.882812 298.214844 C 1054.679688 308.839844 1073.820312 321.367188 1091.414062 335.359375 L 1093.921875 337.351562 C 1096.230469 339.226562 1098.523438 341.125 1100.800781 343.039062 L 1102.136719 344.15625 C 1107.648438 348.761719 1113.085938 353.429688 1118.398438 358.265625 C 1119.722656 359.46875 1121.058594 360.660156 1122.398438 361.839844 C 1130.839844 369.28125 1139.105469 377.207031 1146.375 385.8125 C 1148.027344 387.757812 1149.746094 389.632812 1151.464844 391.519531 C 1154.8125 395.226562 1157.996094 399.042969 1161.132812 402.925781 C 1163.085938 405.324219 1165.085938 407.671875 1167.09375 410.027344 C 1182.421875 428.457031 1195.164062 448.78125 1207 469.578125 C 1208.179688 471.644531 1209.371094 473.703125 1210.574219 475.757812 C 1219.164062 490.628906 1226.703125 506.457031 1232.210938 522.734375 C 1232.75 524.289062 1233.316406 525.832031 1233.921875 527.359375 L 1235.625 528.214844 L 1235.625 366.078125 L 1232.214844 364.375 C 1231.136719 363.640625 1230.074219 362.886719 1229.03125 362.109375 L 1227.191406 360.757812 C 1226.21875 360.039062 1226.21875 360.039062 1225.226562 359.304688 C 1217.777344 353.871094 1210.160156 348.785156 1202.347656 343.894531 L 1200.578125 342.78125 C 1183.011719 331.796875 1164.949219 321.617188 1146.671875 311.871094 C 1144.4375 310.675781 1142.207031 309.472656 1139.976562 308.265625 C 1132.875 304.449219 1125.71875 300.925781 1118.320312 297.714844 C 1114.324219 295.972656 1110.382812 294.101562 1106.507812 292.105469 C 1077.089844 277.15625 1046.027344 265.585938 1014.835938 254.953125 C 1012.953125 254.308594 1011.070312 253.660156 1009.1875 253.007812 C 976.8125 241.8125 943.875 232.1875 910.507812 224.425781 L 908.484375 223.953125 C 868.507812 214.628906 828.410156 208.464844 787.625 203.945312 L 787.808594 206.707031 C 788.582031 219.457031 788.613281 232.199219 788.589844 244.96875 C 788.585938 248.019531 788.589844 251.074219 788.59375 254.128906 C 788.613281 267.855469 788.429688 281.542969 787.625 295.253906 L 789.4375 295.34375 C 816.921875 296.765625 844.257812 300.105469 871.253906 305.492188 L 873.761719 305.984375 C 892.636719 309.726562 911.128906 314.972656 929.386719 321.011719 L 932.558594 322.058594 C 949.300781 327.703125 949.300781 327.703125 954.027344 331.945312 C 954.636719 336.230469 953.667969 339.609375 952.164062 343.5625 L 951.359375 345.546875 L 950.550781 347.597656 C 948.597656 352.363281 946.378906 356.238281 942.933594 360.105469 C 936.820312 358.898438 931.136719 357.042969 925.28125 354.933594 C 889.292969 342.277344 852.5625 333.964844 814.667969 329.917969 L 812.625 329.699219 C 810.679688 329.492188 808.730469 329.292969 806.785156 329.101562 L 803.433594 328.765625 C 798.171875 328.449219 792.894531 328.53125 787.625 328.53125 L 787.625 408.746094 L 816.640625 411.304688 C 821.546875 412 826.308594 412.699219 831.148438 413.652344 L 834.632812 414.316406 C 890.921875 425.242188 942.835938 451.910156 986.167969 489.214844 C 1001.992188 502.996094 1001.992188 502.996094 1008.078125 510.3125 C 1009.871094 512.449219 1011.761719 514.484375 1013.652344 516.535156 C 1017.847656 521.148438 1021.863281 525.863281 1025.707031 530.773438 L 1027.109375 532.5625 C 1035.386719 543.183594 1042.792969 554.140625 1049.601562 565.761719 L 1050.769531 567.753906 C 1073.199219 606.304688 1086.628906 649.132812 1092.855469 693.171875 L 1093.164062 695.332031 C 1094.925781 708.519531 1095 721.757812 1094.988281 735.039062 L 1094.984375 737.667969 C 1094.964844 750.976562 1094.730469 764.160156 1093.121094 777.386719 L 1092.816406 779.933594 C 1091.632812 789.308594 1089.96875 798.554688 1087.9375 807.78125 L 1087.464844 809.929688 C 1086.683594 813.464844 1085.882812 816.996094 1085.058594 820.523438 L 1084.171875 824.4375 L 1083.738281 826.222656 C 1082.867188 830.105469 1082.792969 833.246094 1083.734375 837.121094 C 1084.800781 838.859375 1084.800781 838.859375 1086.324219 840.140625 L 1087.957031 841.632812 C 1090.855469 844.050781 1093.859375 846.304688 1096.90625 848.535156 C 1108.078125 856.945312 1108.078125 856.945312 1111.039062 861.867188 C 1112.042969 864.558594 1112.105469 866.699219 1111.894531 869.546875 C 1110.398438 877.644531 1107.421875 885.238281 1104.375 892.855469 L 1103.648438 894.679688 C 1083.6875 944.851562 1083.6875 944.851562 1074.347656 952.320312 C 1071.289062 952.820312 1069.53125 952.433594 1066.636719 951.351562 C 1057.890625 946.871094 1057.890625 946.871094 1054.71875 942.933594 C 1053.867188 941.226562 1053.867188 941.226562 1053.664062 938.863281 C 1053.894531 935.714844 1054.703125 933.976562 1056.238281 931.234375 L 1057.769531 928.460938 L 1059.414062 925.546875 C 1060.519531 923.554688 1061.613281 921.554688 1062.714844 919.558594 L 1064.332031 916.632812 C 1067.265625 911.257812 1069.949219 905.765625 1072.640625 900.265625 L 1073.445312 898.691406 C 1075.757812 894.160156 1077.796875 889.550781 1079.734375 884.851562 L 1080.695312 882.632812 C 1082.101562 879.199219 1082.886719 876.785156 1082.832031 873.03125 C 1082.210938 870.445312 1082.210938 870.445312 1080.804688 868.839844 C 1080.238281 868.4375 1079.675781 868.039062 1079.09375 867.625 L 1077.015625 866.144531 C 1073.609375 863.953125 1070.140625 861.871094 1066.667969 859.785156 C 1053.699219 851.957031 1053.699219 851.957031 1051.304688 848.214844 C 1049.824219 843.007812 1050.691406 838.339844 1051.984375 833.183594 L 1052.691406 830.507812 L 1054.132812 824.792969 L 1054.871094 821.933594 C 1068.410156 769.335938 1070.863281 713.425781 1056.695312 660.585938 C 1049.460938 634.882812 1040.203125 610.953125 1026.558594 587.945312 L 1025.3125 585.820312 C 1015.121094 568.515625 1003.296875 552.535156 989.867188 537.601562 L 988.285156 535.78125 C 980.085938 526.460938 971.375 517.316406 961.59375 509.652344 C 959.757812 508.210938 957.949219 506.734375 956.164062 505.226562 C 942.34375 493.601562 927.160156 484.003906 911.359375 475.308594 L 909.003906 473.992188 C 881.601562 458.78125 851.722656 448.476562 820.90625 442.878906 L 818.855469 442.484375 C 797.542969 438.410156 775.019531 438.695312 753.492188 437.761719 Z M 1044.90625 989.601562 C 1042.46875 991.738281 1040.59375 993.648438 1039.359375 996.691406 C 1038.527344 1000.027344 1038.15625 1002.207031 1039.039062 1005.515625 C 1040.34375 1008.777344 1041.777344 1011.371094 1044.425781 1013.707031 C 1047.664062 1015.925781 1047.664062 1015.925781 1051.304688 1017.171875 C 1055.265625 1017.234375 1058.765625 1016.664062 1062.292969 1014.828125 C 1064.992188 1013.085938 1064.992188 1013.085938 1066.558594 1010.773438 C 1068.335938 1006.832031 1068.667969 1003.609375 1068.375 999.253906 C 1067.476562 996.25 1066.570312 994.058594 1064.375 991.796875 C 1062.378906 990.058594 1060.503906 988.492188 1058.132812 987.304688 C 1053.164062 986.644531 1049.066406 986.582031 1044.90625 989.601562 M 690.171875 1136.339844 C 687.503906 1138.351562 685.730469 1140.402344 684.375 1143.464844 C 683.625 1146.359375 683.359375 1149.015625 683.519531 1152 C 684.566406 1155.6875 686.039062 1158.113281 688.640625 1160.851562 C 691 1163.210938 691 1163.210938 693.761719 1163.945312 C 697.441406 1164.3125 700.636719 1164.214844 704.160156 1163.039062 C 707.371094 1160.828125 709.914062 1158.960938 711.679688 1155.414062 C 712.414062 1151 712.421875 1146.695312 711.078125 1142.394531 C 709.792969 1139.871094 708.082031 1138.183594 705.972656 1136.320312 C 703.007812 1134.867188 700.707031 1134.167969 697.433594 1133.945312 C 694.625 1134.136719 692.585938 1134.921875 690.171875 1136.339844 M 471.039062 1137.492188 C 472.660156 1141.101562 475.132812 1143.175781 478.132812 1145.652344 L 479.75 1147.011719 C 480.855469 1147.941406 481.964844 1148.867188 483.074219 1149.792969 C 484.566406 1151.042969 486.054688 1152.304688 487.53125 1153.574219 C 493.578125 1158.757812 499.765625 1163.738281 506.0625 1168.621094 C 507.878906 1170.035156 509.695312 1171.449219 511.511719 1172.867188 C 514.777344 1175.410156 518.046875 1177.953125 521.320312 1180.488281 C 522.882812 1181.703125 524.441406 1182.917969 525.996094 1184.132812 C 533.703125 1190.121094 541.597656 1195.832031 549.546875 1201.492188 L 551.527344 1202.90625 C 560.105469 1209.003906 568.78125 1214.949219 577.519531 1220.8125 C 578.566406 1221.511719 579.609375 1222.214844 580.652344 1222.917969 C 582.113281 1223.902344 583.578125 1224.882812 585.046875 1225.859375 L 587.617188 1227.578125 L 589.652344 1228.800781 L 591.359375 1228.800781 C 591.039062 1219.699219 587.316406 1211.167969 582.613281 1203.46875 C 576.316406 1194.203125 569.554688 1187.207031 560.644531 1180.585938 C 557.476562 1178.214844 554.371094 1175.769531 551.253906 1173.332031 L 547.320312 1170.273438 L 545.402344 1168.78125 C 543.722656 1167.476562 542.042969 1166.171875 540.359375 1164.871094 C 533.796875 1159.777344 527.457031 1154.46875 521.175781 1149.027344 C 518.625 1146.824219 516.0625 1144.632812 513.492188 1142.453125 L 512.074219 1141.238281 C 509.625 1139.148438 509.625 1139.148438 506.878906 1137.492188 C 505.71875 1137.421875 504.558594 1137.390625 503.394531 1137.394531 L 501.222656 1137.394531 L 498.875 1137.410156 L 496.46875 1137.414062 C 493.929688 1137.417969 491.394531 1137.429688 488.851562 1137.441406 C 487.132812 1137.445312 485.414062 1137.449219 483.695312 1137.453125 C 479.476562 1137.460938 475.257812 1137.476562 471.039062 1137.492188 M 548.691406 1137.492188 L 548.691406 1139.199219 C 550.375 1140.640625 552.097656 1142.027344 553.867188 1143.359375 L 557.164062 1145.902344 C 557.734375 1146.34375 558.308594 1146.785156 558.898438 1147.238281 C 561.710938 1149.414062 564.480469 1151.640625 567.253906 1153.867188 L 570.476562 1156.453125 L 572.011719 1157.683594 C 573.285156 1158.699219 574.5625 1159.710938 575.84375 1160.71875 C 580.226562 1164.175781 584.414062 1167.78125 588.523438 1171.558594 C 590.488281 1173.363281 590.488281 1173.363281 592.636719 1174.960938 C 601.359375 1182.253906 608.304688 1194.28125 612.324219 1204.847656 C 613.425781 1207.960938 614.355469 1211.113281 615.253906 1214.292969 L 615.988281 1216.679688 C 617.886719 1223.390625 618.644531 1230.265625 619.441406 1237.175781 C 619.636719 1238.792969 619.847656 1240.40625 620.074219 1242.019531 C 620.320312 1243.78125 620.492188 1245.554688 620.644531 1247.328125 C 621.867188 1250.199219 621.867188 1250.199219 624.148438 1251.746094 C 626.90625 1253.519531 629.722656 1255.152344 632.585938 1256.746094 L 635.539062 1258.449219 C 637.351562 1259.496094 639.171875 1260.535156 640.996094 1261.5625 C 642.601562 1262.472656 644.1875 1263.414062 645.753906 1264.390625 C 647.558594 1265.632812 647.558594 1265.632812 649.386719 1265.492188 C 649.707031 1237.964844 646.769531 1213.222656 633.308594 1188.714844 C 622.886719 1170.488281 608.039062 1150.269531 589.574219 1139.402344 C 584.609375 1137.289062 579.601562 1137.464844 574.292969 1137.492188 L 569.527344 1137.46875 C 562.582031 1137.4375 555.636719 1137.445312 548.691406 1137.492188 " fill-opacity="1" fill-rule="nonzero"/><path fill="#00357a" d="M 692.511719 221.753906 C 695.671875 221.757812 698.835938 221.757812 701.996094 221.753906 C 704.449219 221.75 706.902344 221.75 709.355469 221.753906 C 710.523438 221.753906 711.691406 221.75 712.859375 221.75 C 714.476562 221.746094 716.09375 221.753906 717.714844 221.757812 L 720.496094 221.757812 C 722.773438 221.867188 722.773438 221.867188 725.332031 222.71875 L 725.332031 265.386719 L 713.304688 265.511719 C 710.761719 265.542969 708.21875 265.574219 705.675781 265.605469 C 701.65625 265.65625 697.636719 265.707031 693.617188 265.746094 C 690.367188 265.777344 687.121094 265.816406 683.875 265.863281 C 682.644531 265.878906 681.417969 265.890625 680.191406 265.902344 C 667.429688 266.007812 653.945312 266.175781 642.671875 272.800781 C 636.921875 276.667969 633.28125 280.808594 629.761719 286.71875 L 628.816406 288.273438 C 619.984375 302.871094 612.113281 318.085938 604.28125 333.242188 C 595.253906 350.695312 585.980469 368.308594 569 379.238281 C 567.101562 380.347656 565.183594 381.335938 563.199219 382.292969 L 560.953125 383.378906 C 548.980469 388.761719 536.09375 390.960938 523.03125 390.945312 L 520.785156 390.953125 C 518.328125 390.957031 515.867188 390.960938 513.40625 390.960938 L 508.089844 390.972656 C 504.28125 390.984375 500.472656 390.992188 496.664062 390.996094 C 490.636719 391.007812 484.605469 391.023438 478.578125 391.042969 C 461.433594 391.09375 444.292969 391.140625 427.148438 391.167969 C 417.675781 391.183594 408.199219 391.210938 398.722656 391.242188 C 393.71875 391.261719 388.710938 391.273438 383.703125 391.277344 C 378.992188 391.28125 374.277344 391.292969 369.5625 391.316406 C 367.84375 391.320312 366.121094 391.324219 364.398438 391.320312 C 351.847656 391.304688 340.496094 391.839844 329.171875 397.9375 C 325.566406 400.125 322.320312 402.558594 319.148438 405.332031 L 317.585938 406.648438 C 311.414062 412.277344 306.996094 419.8125 304.320312 427.679688 C 300.832031 441.023438 300.988281 454.773438 301.058594 468.460938 L 301.066406 473.960938 C 301.074219 478.734375 301.089844 483.507812 301.109375 488.277344 C 301.125 493.171875 301.136719 498.0625 301.144531 502.953125 C 301.160156 512.511719 301.191406 522.070312 301.226562 531.625 L 304.007812 531.4375 C 317.136719 530.628906 330.253906 530.707031 343.398438 530.789062 C 346.742188 530.808594 350.089844 530.824219 353.4375 530.839844 L 357.644531 530.855469 L 359.78125 530.863281 L 366.328125 530.894531 C 376.964844 530.945312 387.601562 530.976562 398.242188 530.992188 L 400.582031 530.996094 C 407.75 531.007812 414.917969 531.015625 422.082031 531.027344 L 439.230469 531.050781 C 452.40625 531.074219 465.582031 531.136719 478.757812 531.21875 C 492.332031 531.296875 505.90625 531.332031 519.480469 531.320312 C 527.828125 531.3125 536.175781 531.34375 544.523438 531.425781 C 550.25 531.480469 555.972656 531.484375 561.695312 531.453125 C 564.992188 531.4375 568.28125 531.441406 571.574219 531.5 C 584.855469 532 584.855469 532 597.480469 528.660156 C 602.171875 525.8125 606.222656 522.421875 610.1875 518.640625 C 629.984375 500.445312 659.085938 488.527344 684.375 480.425781 L 686.367188 479.765625 C 712.417969 471.140625 739.355469 467.425781 766.71875 467.464844 L 768.753906 467.46875 C 804.382812 467.558594 838.1875 475.015625 871.253906 488.105469 L 873.0625 488.816406 C 906.148438 502 935.457031 524.011719 960.480469 549.011719 L 962.757812 551.261719 C 967.902344 556.394531 972.558594 561.769531 977.066406 567.464844 L 978.605469 569.371094 C 1007.972656 605.6875 1027.183594 649.363281 1034.507812 695.519531 C 1041.679688 744.558594 1037.578125 794.089844 1019.625 840.457031 C 1017.527344 845.664062 1015.246094 850.785156 1012.90625 855.894531 L 1011.890625 858.152344 C 1003.066406 877.707031 991.703125 895.75 977.921875 912.214844 L 975.746094 914.832031 C 966.640625 925.75 957.164062 936.238281 946.347656 945.492188 L 943.988281 947.566406 C 938.789062 952.097656 933.425781 956.332031 927.839844 960.371094 L 925.898438 961.78125 C 922.535156 964.183594 919.132812 966.476562 915.617188 968.652344 L 913.511719 969.980469 C 912.191406 970.800781 910.859375 971.605469 909.515625 972.386719 C 906.9375 973.996094 905.023438 975.382812 903.460938 978.027344 C 902.535156 980.242188 901.804688 982.445312 901.121094 984.746094 L 900.308594 987.386719 C 899.453125 990.25 898.625 993.121094 897.8125 996 C 891.554688 1017.503906 882.8125 1038.460938 866.988281 1054.71875 L 864.675781 1057.21875 C 852.820312 1069.835938 838.292969 1077.507812 821.847656 1082.542969 C 820.394531 1082.945312 818.945312 1083.339844 817.492188 1083.734375 L 815.121094 1084.398438 C 805.609375 1086.765625 796.296875 1086.652344 786.550781 1086.625 C 784.632812 1086.628906 782.714844 1086.632812 780.796875 1086.636719 C 775.550781 1086.648438 770.300781 1086.648438 765.054688 1086.640625 C 759.96875 1086.636719 754.882812 1086.644531 749.796875 1086.652344 C 738.757812 1086.671875 727.722656 1086.671875 716.683594 1086.667969 C 703.765625 1086.660156 690.851562 1086.664062 677.933594 1086.675781 C 659.757812 1086.683594 641.582031 1086.6875 623.40625 1086.679688 L 621.332031 1086.679688 L 604.652344 1086.671875 C 582.972656 1086.664062 561.296875 1086.671875 539.617188 1086.691406 C 512.636719 1086.714844 485.65625 1086.722656 458.671875 1086.71875 L 456.730469 1086.714844 C 447.082031 1086.714844 437.429688 1086.71875 427.777344 1086.734375 C 416.796875 1086.746094 405.8125 1086.746094 394.832031 1086.730469 C 389.234375 1086.722656 383.632812 1086.722656 378.035156 1086.734375 C 372.902344 1086.746094 367.769531 1086.742188 362.636719 1086.726562 C 360.785156 1086.722656 358.933594 1086.726562 357.085938 1086.734375 C 338.207031 1086.820312 321.355469 1082.835938 304.527344 1074.078125 C 289.542969 1065.261719 277.40625 1052.660156 268.800781 1037.652344 C 255.050781 1012.542969 254.976562 985.0625 255.089844 957.1875 C 255.097656 955.296875 255.097656 953.40625 255.101562 951.515625 C 255.109375 947.539062 255.121094 943.5625 255.132812 939.585938 C 255.148438 932.675781 255.15625 925.769531 255.15625 918.859375 L 255.160156 912.855469 C 255.164062 907.632812 255.167969 902.414062 255.171875 897.191406 L 255.175781 893.9375 L 255.1875 878.546875 C 255.214844 849 255.246094 819.453125 255.28125 789.90625 L 255.285156 787.828125 C 255.320312 765.753906 255.351562 743.683594 255.371094 721.613281 L 255.375 719.433594 C 255.402344 696.054688 255.425781 672.671875 255.445312 649.289062 C 255.464844 621.050781 255.496094 592.816406 255.546875 564.589844 C 255.558594 553.832031 255.570312 543.078125 255.570312 532.324219 C 255.578125 521.519531 255.589844 510.71875 255.613281 499.917969 C 255.625 494.078125 255.632812 488.238281 255.628906 482.394531 C 255.625 477.039062 255.632812 471.6875 255.652344 466.332031 C 255.65625 464.402344 255.65625 462.476562 255.652344 460.550781 C 255.601562 437.171875 258.757812 415.617188 270.507812 395.09375 C 275.039062 387.378906 280.550781 381.015625 286.71875 374.613281 L 288.257812 372.914062 C 292.753906 368.070312 298.257812 364.515625 303.785156 360.960938 L 306.621094 359.132812 C 319.214844 351.476562 333.476562 347.402344 348.160156 346.453125 C 353.03125 346.351562 357.902344 346.371094 362.773438 346.398438 C 364.089844 346.40625 365.410156 346.410156 366.726562 346.410156 C 369.925781 346.421875 373.121094 346.433594 376.320312 346.453125 L 376.304688 344.386719 C 376.265625 336.824219 376.265625 329.265625 376.320312 321.707031 L 376.335938 319.375 C 376.445312 310.59375 376.445312 310.59375 378.03125 306.914062 C 379.558594 304.566406 381.382812 302.976562 383.628906 301.332031 C 386.796875 299.871094 389.546875 299.414062 393.023438 299.375 L 395.386719 299.339844 L 397.960938 299.316406 L 400.6875 299.285156 C 403.667969 299.25 406.648438 299.21875 409.625 299.191406 L 415.851562 299.125 C 420.207031 299.078125 424.5625 299.035156 428.917969 298.996094 C 434.480469 298.945312 440.042969 298.882812 445.605469 298.816406 C 449.894531 298.769531 454.1875 298.722656 458.476562 298.6875 C 460.527344 298.667969 462.574219 298.644531 464.625 298.617188 C 467.503906 298.582031 470.382812 298.558594 473.261719 298.539062 L 475.792969 298.5 C 481.652344 298.472656 487.5625 298.769531 493.226562 300.375 C 497.429688 303.082031 500.289062 306.183594 502.613281 310.613281 C 502.980469 312.917969 502.980469 312.917969 503.050781 315.402344 L 503.140625 318.1875 L 503.199219 321.121094 L 503.285156 324.113281 C 503.484375 331.5625 503.546875 339.003906 503.464844 346.453125 C 507.109375 346.332031 510.753906 346.207031 514.398438 346.078125 L 517.492188 345.976562 C 532.328125 345.652344 532.328125 345.652344 545.988281 340.421875 C 556.867188 332.335938 562.808594 316.292969 568.71875 304.644531 C 571.554688 299.078125 574.480469 293.554688 577.410156 288.035156 C 578.234375 286.480469 579.058594 284.921875 579.878906 283.359375 C 589.675781 264.804688 599.839844 246.953125 618.027344 235.414062 C 641.597656 221.46875 665.941406 221.714844 692.511719 221.753906 M 638.34375 539.824219 C 628.363281 546.316406 619.367188 553.890625 610.667969 561.992188 C 608.847656 563.65625 607.003906 565.289062 605.128906 566.894531 C 594.601562 576.082031 585.933594 586.953125 577.707031 598.1875 L 575.417969 601.246094 C 569.898438 608.703125 565.132812 616.527344 560.640625 624.640625 L 559.308594 627.039062 C 549.699219 644.503906 542.335938 662.4375 537.601562 681.8125 L 537.136719 683.65625 C 527.078125 724.171875 528.917969 767.136719 540.351562 807.15625 C 549.554688 838.335938 564.445312 868.453125 585.386719 893.441406 L 587.734375 896.308594 C 597.210938 907.761719 607.707031 918.53125 619.519531 927.574219 L 622.046875 929.597656 C 652.382812 953.757812 689.761719 969.71875 727.894531 976.214844 L 730.167969 976.632812 C 742.527344 978.863281 754.890625 979.015625 767.414062 979.039062 L 769.820312 979.050781 C 784.214844 979.078125 798.363281 978.140625 812.480469 975.199219 L 815.175781 974.644531 C 837.785156 969.839844 859.410156 962.449219 879.785156 951.464844 L 881.445312 950.589844 C 890.816406 945.640625 899.445312 939.867188 907.945312 933.546875 L 909.539062 932.367188 C 917.785156 926.210938 925.296875 919.359375 932.691406 912.214844 L 934.808594 910.175781 C 938.574219 906.472656 942.0625 902.578125 945.492188 898.558594 L 947.59375 896.171875 C 958.417969 883.777344 967.179688 870.136719 975.359375 855.894531 L 976.417969 854.082031 C 982.828125 843.011719 987.21875 831.199219 991.574219 819.199219 L 992.292969 817.246094 C 1005.339844 781.632812 1008.308594 739.238281 1002.191406 701.96875 C 995.070312 661.789062 979.316406 624.316406 954.027344 592.214844 L 952.03125 589.667969 C 932.28125 564.992188 908.15625 545.3125 880.640625 529.921875 L 878.640625 528.785156 C 859.929688 518.273438 840.128906 510.726562 819.199219 506.027344 L 815.890625 505.242188 C 812.738281 504.550781 809.582031 503.980469 806.398438 503.464844 L 804.335938 503.117188 C 745.996094 493.5625 687.726562 508.382812 638.339844 539.824219 M 449.707031 615.253906 C 447.007812 617.46875 447.007812 617.46875 445.441406 620.375 C 444.792969 624.769531 444.710938 629.113281 446.039062 633.394531 C 447.410156 636.074219 449.097656 637.628906 451.46875 639.464844 C 454.242188 641 456.144531 641.675781 459.308594 641.921875 C 463.019531 641.671875 465.234375 640.976562 468.480469 639.148438 C 470.890625 636.902344 473.117188 634.65625 474.152344 631.480469 C 474.660156 628.589844 474.84375 625.835938 474.453125 622.933594 C 473.257812 619.71875 471.449219 617.351562 468.960938 614.984375 C 465.585938 612.761719 463.261719 611.914062 459.199219 611.519531 C 455.332031 611.636719 452.742188 612.917969 449.707031 615.253906 M 338.828125 575.574219 L 335.738281 575.605469 C 323.949219 575.722656 312.160156 575.855469 300.375 576 C 300.347656 579.378906 300.332031 582.753906 300.320312 586.132812 L 300.296875 589.050781 L 300.289062 591.832031 L 300.277344 594.40625 C 300.234375 596.488281 300.234375 596.488281 301.226562 598.1875 C 318.132812 598.304688 335.039062 598.398438 351.945312 598.453125 C 359.796875 598.476562 367.648438 598.515625 375.503906 598.574219 C 382.355469 598.625 389.207031 598.65625 396.0625 598.667969 C 399.683594 598.675781 403.300781 598.691406 406.921875 598.730469 C 421.53125 598.875 435.109375 598.777344 449.175781 594.214844 C 455.792969 592.101562 462.386719 592.382812 469.203125 593.445312 C 474.847656 594.824219 479.480469 597.820312 483.839844 601.601562 C 488.539062 606.523438 491.710938 612.058594 493.71875 618.554688 C 495.082031 625.441406 494.480469 632.359375 492.320312 638.984375 C 489.273438 647.621094 483.796875 653.089844 477.128906 659.152344 C 474.894531 661.828125 474.421875 663.921875 473.601562 667.308594 C 473.257812 669.535156 472.960938 671.734375 472.714844 673.972656 L 472.5 675.863281 C 472.351562 677.179688 472.203125 678.496094 472.058594 679.816406 C 471.84375 681.785156 471.617188 683.753906 471.390625 685.722656 C 469.632812 701.207031 469.128906 716.527344 469.121094 732.105469 L 469.117188 735.207031 C 469.164062 785.597656 478.945312 835.792969 502.613281 880.640625 L 503.695312 882.691406 C 514.234375 902.566406 527.023438 920.898438 541.867188 937.8125 L 543.445312 939.644531 C 544.894531 941.324219 546.359375 942.988281 547.839844 944.640625 L 549.898438 946.96875 C 555.675781 953.4375 561.828125 959.375 568.320312 965.121094 L 569.617188 966.273438 C 590.710938 984.929688 615.496094 1002.289062 641.707031 1012.90625 L 643.414062 1012.90625 L 643.414062 1015.464844 C 636.417969 1015.726562 629.421875 1015.921875 622.425781 1016.042969 C 619.171875 1016.097656 615.925781 1016.175781 612.675781 1016.304688 C 591.789062 1017.097656 591.789062 1017.097656 585.460938 1014.410156 C 581.585938 1012.046875 578.53125 1009.15625 575.5625 1005.746094 C 573.507812 1003.523438 571.144531 1001.878906 568.695312 1000.105469 C 551.984375 987.332031 535.871094 972.613281 522.238281 956.585938 L 520.019531 954.078125 C 512.824219 945.917969 506.355469 937.289062 500.054688 928.425781 L 498.859375 926.757812 C 492.605469 917.9375 487.5 908.542969 482.433594 899.003906 C 481.449219 897.167969 480.441406 895.339844 479.414062 893.527344 C 454.152344 848.199219 443.144531 792.824219 443.304688 741.441406 L 443.304688 738.0625 C 443.316406 719.035156 444.648438 700.292969 446.984375 681.410156 L 447.25 679.203125 C 447.628906 676.148438 448.027344 673.109375 448.507812 670.066406 C 448.84375 667.628906 449.113281 665.484375 448.851562 663.039062 C 447.527344 660.808594 445.890625 659.699219 443.679688 658.398438 C 442.691406 657.742188 441.703125 657.085938 440.714844 656.429688 L 439.226562 655.480469 C 434.074219 652.058594 430.328125 648.082031 427.519531 642.558594 C 425.125 635.855469 423.796875 629.066406 422.398438 622.078125 L 301.226562 621.226562 C 300.257812 623.164062 300.261719 624.25 300.261719 626.398438 L 300.257812 628.460938 L 300.265625 630.613281 L 300.257812 632.765625 L 300.261719 634.828125 L 300.261719 636.714844 C 300.277344 638.375 300.277344 638.375 301.226562 640 L 303.179688 640.019531 C 309.257812 640.085938 315.332031 640.164062 321.410156 640.246094 C 324.535156 640.289062 327.660156 640.328125 330.78125 640.359375 C 333.796875 640.390625 336.8125 640.429688 339.828125 640.476562 C 341.539062 640.5 343.246094 640.515625 344.957031 640.53125 L 348.113281 640.582031 L 350.894531 640.613281 C 353.292969 640.855469 354.71875 641.191406 356.695312 642.558594 C 357.667969 645.488281 357.722656 647.851562 357.761719 650.933594 L 357.828125 654.042969 C 357.515625 657.386719 356.808594 659.378906 354.988281 662.1875 C 353.007812 663.488281 351.621094 663.886719 349.253906 664.128906 L 346.5625 664.164062 L 343.511719 664.214844 L 340.226562 664.246094 L 336.855469 664.296875 C 333.902344 664.339844 330.953125 664.375 328 664.40625 C 324.984375 664.441406 321.972656 664.484375 318.957031 664.527344 C 313.046875 664.609375 307.136719 664.683594 301.226562 664.746094 C 300.21875 666.761719 300.261719 667.988281 300.261719 670.234375 L 300.257812 672.503906 L 300.265625 674.878906 L 300.257812 677.238281 L 300.261719 679.511719 L 300.261719 681.59375 C 300.371094 683.484375 300.742188 685.109375 301.226562 686.933594 C 313.695312 686.992188 326.148438 686.824219 338.613281 686.507812 L 343.671875 686.382812 C 347.726562 686.285156 351.785156 686.183594 355.839844 686.078125 L 356.347656 683.410156 L 357.03125 679.914062 L 357.363281 678.160156 C 358.613281 671.785156 360.746094 667.570312 364.800781 662.558594 C 369.390625 657.59375 375.078125 654.375 381.285156 651.804688 C 387.773438 650.105469 395.457031 650.222656 401.988281 651.679688 C 404.089844 652.472656 405.953125 653.386719 407.894531 654.507812 L 409.871094 655.542969 C 415.535156 658.851562 419.074219 663.425781 422.398438 669.011719 C 425.449219 674.71875 426.335938 680.40625 426.277344 686.820312 C 425.957031 693.78125 423.714844 699.929688 420.453125 706.050781 C 417.136719 711.074219 412.289062 714.035156 407.039062 716.800781 C 401.640625 719.277344 395.910156 720.433594 389.972656 720.214844 C 383.367188 719.222656 377.398438 717.558594 371.59375 714.214844 C 365.59375 710.800781 360.523438 709.242188 353.628906 709.179688 C 351.714844 709.199219 349.804688 709.253906 347.894531 709.308594 C 346.535156 709.320312 345.175781 709.328125 343.820312 709.335938 C 340.292969 709.363281 336.773438 709.429688 333.25 709.503906 C 329.632812 709.574219 326.015625 709.605469 322.402344 709.640625 C 315.339844 709.710938 308.285156 709.828125 301.226562 709.972656 C 300.117188 712.1875 300.261719 713.820312 300.261719 716.296875 L 300.257812 719.066406 L 300.265625 721.972656 L 300.257812 724.886719 L 300.261719 727.65625 L 300.261719 730.210938 L 300.375 732.160156 L 301.226562 733.011719 C 302.542969 733.121094 303.863281 733.191406 305.183594 733.222656 L 307.671875 733.304688 L 310.347656 733.386719 C 323.023438 733.882812 335.035156 734.574219 346.242188 741.238281 C 348.375 742.6875 350.402344 744.214844 352.425781 745.8125 L 354.199219 747.101562 C 360.515625 752.039062 364.90625 759.089844 368.085938 766.375 C 369.886719 771.703125 370.761719 777.136719 371.5625 782.683594 L 371.894531 784.941406 C 372.542969 789.347656 373.175781 793.757812 373.804688 798.167969 C 376.996094 820.515625 380.996094 842.285156 387.257812 864.015625 C 389.742188 872.832031 389.742188 872.832031 389.121094 877.226562 C 386.753906 880.1875 383.257812 881.875 379.894531 883.519531 C 375.898438 884.304688 371.828125 884.644531 367.785156 884.054688 C 366.21875 882.78125 365.347656 881.769531 364.546875 879.910156 L 364.035156 878.101562 L 363.441406 876.027344 L 362.828125 873.757812 L 362.160156 871.347656 C 361.460938 868.761719 360.777344 866.167969 360.105469 863.574219 L 359.457031 861.066406 C 354.558594 841.875 351.464844 822.253906 348.90625 802.625 L 348.464844 799.25 C 348.199219 797.195312 347.945312 795.140625 347.707031 793.085938 C 346.636719 784.605469 344.429688 776.804688 339.421875 769.765625 C 335.964844 765.699219 331.984375 762.644531 327.035156 760.644531 C 323.445312 759.363281 319.9375 758.828125 316.160156 758.453125 L 314.328125 758.242188 C 310.230469 757.796875 306.207031 757.625 302.078125 757.761719 L 301.226562 758.613281 C 300.984375 762.375 301.027344 766.148438 301.011719 769.921875 L 300.960938 773.128906 L 300.945312 776.226562 L 300.921875 779.066406 C 301.265625 781.984375 302.089844 783.546875 303.785156 785.921875 C 304.847656 787.113281 305.953125 788.269531 307.09375 789.386719 L 308.792969 791.070312 C 310.609375 792.796875 310.609375 792.796875 312.722656 794.335938 C 315.230469 796.457031 316.90625 798.6875 318.773438 801.386719 L 320.695312 804.113281 C 324.671875 810.40625 326.539062 817.359375 328 824.585938 L 328.539062 827.136719 C 329.515625 831.796875 330.453125 836.464844 331.351562 841.144531 C 338.378906 877.136719 350.054688 912.125 365.226562 945.492188 L 366.320312 947.929688 C 371.371094 959.105469 377.167969 969.773438 383.316406 980.382812 C 384.679688 982.738281 386.035156 985.097656 387.390625 987.460938 C 394.035156 999.195312 394.035156 999.195312 401.113281 1010.671875 C 401.921875 1012.054688 401.921875 1012.054688 402.773438 1014.613281 C 398.765625 1014.847656 394.765625 1015.015625 390.753906 1015.128906 C 389.390625 1015.175781 388.03125 1015.238281 386.671875 1015.320312 C 382.207031 1015.582031 378.136719 1015.605469 373.761719 1014.613281 C 370.476562 1011.976562 368.808594 1008.953125 366.933594 1005.226562 C 366.050781 1003.769531 365.160156 1002.320312 364.265625 1000.871094 C 363.441406 999.429688 362.625 997.984375 361.8125 996.53125 L 360.492188 994.195312 C 357.046875 988.042969 353.796875 981.792969 350.742188 975.4375 C 350.085938 974.101562 349.417969 972.769531 348.738281 971.441406 C 345.195312 964.5 342.066406 957.417969 339.039062 950.238281 L 338.257812 948.390625 C 326 919.3125 316.324219 889.910156 308.695312 859.316406 L 308.125 857.0625 C 307.773438 855.675781 307.429688 854.289062 307.09375 852.902344 C 305.953125 848.417969 304.265625 844.613281 302.078125 840.535156 L 301.226562 840.535156 C 300.546875 849.761719 300.257812 858.917969 300.300781 868.167969 L 300.308594 872.183594 C 300.316406 875.773438 300.328125 879.363281 300.347656 882.953125 L 300.375 889.710938 C 300.402344 896.796875 300.433594 903.878906 300.472656 910.960938 C 300.515625 919.078125 300.546875 927.195312 300.5625 935.316406 C 300.578125 941.632812 300.605469 947.949219 300.640625 954.265625 C 300.664062 958.019531 300.679688 961.773438 300.679688 965.527344 C 300.355469 992.601562 300.355469 992.601562 308.921875 1017.949219 C 314.089844 1025.996094 320.75 1032.035156 329.171875 1036.480469 C 337.445312 1040.4375 345.65625 1042.871094 354.851562 1042.890625 L 356.574219 1042.898438 C 358.480469 1042.90625 360.386719 1042.90625 362.289062 1042.90625 L 366.433594 1042.921875 C 370.230469 1042.933594 374.027344 1042.941406 377.824219 1042.945312 C 381.921875 1042.953125 386.023438 1042.960938 390.121094 1042.972656 C 398.167969 1042.996094 406.214844 1043.011719 414.261719 1043.027344 C 423.699219 1043.046875 433.132812 1043.066406 442.5625 1043.089844 C 459.476562 1043.128906 476.390625 1043.167969 493.304688 1043.203125 C 509.566406 1043.234375 525.828125 1043.269531 542.089844 1043.308594 L 545.09375 1043.316406 L 557.078125 1043.34375 C 577.433594 1043.359375 597.765625 1043.40625 618.074219 1043.480469 C 655.464844 1043.566406 692.855469 1043.640625 730.246094 1043.648438 L 736.671875 1043.652344 C 753.089844 1043.660156 769.503906 1043.613281 785.921875 1043.414062 L 788.34375 1043.386719 L 790.660156 1043.355469 L 792.695312 1043.332031 C 803.589844 1043.113281 814.035156 1040.925781 823.691406 1035.671875 C 831.484375 1030.890625 837.523438 1025.0625 842.238281 1017.171875 C 847.015625 1009.011719 847.015625 1009.011719 849.066406 1000.105469 C 843.480469 1000.652344 838.269531 1001.917969 832.851562 1003.359375 C 822.4375 1006.050781 811.941406 1008.046875 801.28125 1009.492188 L 799.691406 1009.714844 C 793.839844 1010.464844 788.015625 1010.5 782.121094 1010.519531 L 778.789062 1010.535156 C 776.464844 1010.542969 774.136719 1010.546875 771.8125 1010.550781 C 769.46875 1010.554688 767.125 1010.566406 764.78125 1010.585938 C 750.570312 1010.703125 736.789062 1010.285156 722.773438 1007.785156 L 719.753906 1007.273438 C 717.386719 1006.84375 715.042969 1006.375 712.695312 1005.867188 L 710.140625 1005.316406 C 685.625 999.898438 661.199219 991.804688 639.148438 979.625 C 638.027344 979.027344 636.910156 978.433594 635.789062 977.835938 C 623.652344 971.277344 612.519531 963.285156 601.601562 954.878906 L 600.125 953.757812 C 594.289062 949.320312 588.765625 944.851562 583.675781 939.546875 C 582.089844 937.933594 580.457031 936.488281 578.71875 935.039062 C 570.675781 928.117188 563.746094 919.691406 557.226562 911.359375 L 556.066406 909.886719 C 549.421875 901.382812 543.46875 892.542969 537.859375 883.320312 C 536.910156 881.765625 535.949219 880.21875 534.976562 878.679688 C 512.828125 842.09375 501.226562 798.273438 498.667969 755.894531 L 498.5625 754.175781 C 498.023438 743.660156 498.347656 733.164062 499.039062 722.667969 L 499.152344 720.9375 C 499.820312 710.933594 500.878906 701.070312 502.613281 691.199219 L 502.980469 689.066406 C 509.714844 650.59375 526.226562 613.042969 549.609375 581.8125 C 551.121094 579.605469 552.019531 577.632812 552.960938 575.148438 C 528.050781 575.125 503.136719 575.105469 478.21875 575.09375 C 431.753906 575.074219 385.289062 575.105469 338.828125 575.574219 M 383.679688 672.105469 C 380.492188 674.988281 377.707031 677.652344 376.320312 681.8125 C 376.058594 685.214844 376.265625 687.625 377.332031 690.878906 C 378.953125 693.902344 380.546875 695.808594 383.144531 698.027344 C 385.691406 699.546875 387.652344 700.007812 390.613281 700.054688 C 394.328125 699.957031 397.191406 699.371094 400.414062 697.5 C 402.644531 695.75 404.097656 693.917969 405.460938 691.441406 C 406.535156 688.554688 406.714844 686.003906 406.542969 682.941406 C 406.242188 680.746094 406.242188 680.746094 404.800781 678.132812 C 402.195312 675.183594 399.503906 672.5 395.945312 670.71875 C 391.507812 670.277344 387.738281 670.152344 383.679688 672.105469 " fill-opacity="1" fill-rule="nonzero"/><path fill="#00357a" d="M 855.605469 556.546875 C 868.722656 563.324219 881.109375 570.972656 892.585938 580.265625 L 894.074219 581.460938 C 920.925781 603.152344 942.402344 631.363281 954.96875 663.59375 C 963.300781 685.398438 968.753906 708.777344 969.386719 732.160156 L 969.441406 734.191406 C 970.007812 758.359375 966.929688 782.597656 959.148438 805.546875 L 958.515625 807.4375 C 951.121094 829.289062 940.390625 849.066406 925.867188 866.988281 C 925.246094 867.769531 924.628906 868.554688 923.988281 869.359375 C 902.441406 896.285156 874.328125 917.503906 842.195312 930.226562 C 829.570312 935.03125 816.296875 938.914062 802.988281 941.226562 C 802.109375 941.398438 802.109375 941.398438 801.21875 941.574219 C 771.703125 947.253906 739.4375 944.917969 710.828125 936.105469 L 708.886719 935.511719 C 680.730469 926.78125 655.25 912.820312 633.507812 892.761719 C 632.144531 891.503906 630.769531 890.269531 629.375 889.054688 C 604.390625 867.210938 587.886719 837.632812 577.027344 806.617188 C 565.296875 772.019531 563.238281 735.109375 570.054688 699.242188 C 577.375 663.300781 594.539062 631.117188 618.667969 603.625 C 627.90625 593.53125 637.441406 584.046875 648.535156 576 L 649.921875 574.984375 C 678.59375 554.179688 711.488281 541.539062 746.667969 537.386719 C 783.632812 533.636719 822.316406 539.859375 855.605469 556.546875 M 760.445312 567.652344 C 747.019531 568.753906 734.019531 570.574219 721.066406 574.292969 L 719.132812 574.835938 C 688.769531 583.523438 664.765625 601.722656 642.605469 623.542969 L 640.851562 625.492188 L 640.851562 627.199219 C 656.058594 630.515625 671.269531 633.800781 686.484375 637.054688 C 704.230469 640.851562 722.003906 644.476562 739.808594 647.984375 C 781.765625 656.273438 781.765625 656.273438 798.710938 660.949219 C 801.273438 661.523438 803.789062 661.382812 806.398438 661.332031 C 805.25 655.394531 803.4375 650.0625 801.152344 644.46875 L 800.09375 641.839844 C 798.964844 639.039062 797.832031 636.238281 796.691406 633.441406 L 794.355469 627.640625 C 792.816406 623.824219 791.277344 620.011719 789.734375 616.199219 C 787.496094 610.664062 785.277344 605.125 783.070312 599.578125 C 781.515625 595.679688 779.953125 591.78125 778.386719 587.882812 C 777.734375 586.253906 777.082031 584.625 776.433594 582.992188 C 775.597656 580.910156 774.761719 578.828125 773.921875 576.746094 L 773.238281 575.03125 C 771.613281 570.863281 771.613281 570.863281 768.851562 567.464844 C 765.964844 567.140625 763.335938 567.433594 760.445312 567.652344 M 799.574219 570.878906 C 800.058594 574.371094 800.839844 577.375 802.179688 580.628906 L 803.316406 583.421875 L 804.585938 586.507812 C 805.53125 588.832031 806.46875 591.160156 807.40625 593.488281 L 808.179688 595.40625 C 819.789062 624.226562 830.605469 653.332031 841.132812 682.5625 C 843.023438 687.824219 844.945312 693.070312 846.898438 698.308594 C 851.480469 710.613281 855.691406 722.945312 859.304688 735.574219 C 862.453125 734.121094 863.984375 732.5625 866.132812 729.8125 C 869.1875 725.972656 872.3125 722.21875 875.519531 718.507812 C 878.539062 715.007812 881.519531 711.484375 884.425781 707.894531 C 888.824219 702.476562 893.417969 697.238281 897.996094 691.976562 C 904.5625 684.421875 911.089844 676.835938 917.332031 669.011719 L 918.875 667.367188 L 919.894531 665.601562 C 919.691406 659.21875 915.476562 653.816406 912.214844 648.535156 C 906 638.644531 898.859375 629.738281 890.878906 621.226562 L 889.691406 619.949219 C 879.007812 608.566406 866.652344 599.4375 853.332031 591.359375 L 850.507812 589.613281 C 835.902344 580.890625 819.507812 574.832031 802.988281 570.878906 Z M 622.078125 650.238281 C 620.125 652.054688 620.125 652.054688 618.773438 654.71875 L 617.933594 656.199219 C 606.46875 676.949219 599.75 699.230469 597.332031 722.773438 L 596.984375 725.949219 C 595.140625 747.453125 598.402344 770.074219 603.308594 791.039062 L 604.160156 792.746094 C 605.714844 792.691406 605.714844 792.691406 607.574219 791.894531 C 609.148438 790.277344 610.640625 788.585938 612.054688 786.828125 C 612.679688 786.066406 612.679688 786.066406 613.316406 785.292969 C 614.539062 783.800781 615.753906 782.304688 616.960938 780.800781 L 618.671875 778.675781 C 619.730469 777.351562 620.785156 776.023438 621.839844 774.695312 C 630.261719 764.1875 638.925781 753.867188 647.707031 743.65625 L 649.027344 742.121094 L 651.648438 739.074219 C 654.304688 735.976562 656.910156 732.835938 659.46875 729.652344 C 662.023438 726.5 664.679688 723.59375 667.59375 720.773438 C 669.601562 718.773438 671.425781 716.632812 673.273438 714.488281 C 674.941406 712.59375 676.640625 710.726562 678.363281 708.878906 C 681.847656 705.121094 685.210938 701.328125 688.425781 697.332031 C 690.996094 694.140625 693.652344 691.203125 696.601562 688.355469 C 698.648438 686.3125 700.496094 684.105469 702.378906 681.910156 C 704.792969 679.226562 707.414062 676.757812 710.042969 674.285156 C 711.785156 672.308594 712.476562 670.605469 713.386719 668.160156 L 711.390625 667.785156 C 698.757812 665.398438 686.15625 662.929688 673.601562 660.160156 L 671.9375 659.792969 C 667.148438 658.738281 662.363281 657.675781 657.578125 656.609375 C 653.257812 655.648438 648.941406 654.695312 644.621094 653.746094 C 643.222656 653.4375 641.828125 653.128906 640.433594 652.816406 C 638.484375 652.378906 636.535156 651.949219 634.582031 651.523438 L 632.847656 651.128906 C 629.203125 650.339844 625.804688 649.972656 622.082031 650.238281 M 930.132812 693.761719 C 928.683594 695.246094 927.261719 696.757812 925.867188 698.292969 L 924.585938 699.695312 C 921.230469 703.398438 918.0625 707.234375 914.925781 711.128906 C 913.085938 713.363281 911.179688 715.511719 909.226562 717.652344 C 905.949219 721.253906 902.859375 724.972656 899.800781 728.757812 C 897.421875 731.652344 894.984375 734.496094 892.535156 737.332031 C 889.660156 740.664062 886.828125 744.007812 884.105469 747.464844 C 880.359375 752.203125 876.386719 756.734375 872.417969 761.285156 C 870.140625 763.902344 867.882812 766.53125 865.640625 769.179688 C 861.40625 774.15625 857.058594 779.035156 852.601562 783.8125 C 850.421875 786.15625 848.273438 788.507812 846.1875 790.933594 C 839.566406 798.570312 832.566406 805.902344 825.441406 813.066406 L 824.167969 814.351562 C 822.300781 816.210938 820.546875 817.730469 818.347656 819.199219 L 818.347656 821.761719 L 821.011719 822.417969 C 825.316406 823.488281 829.621094 824.566406 833.921875 825.652344 L 836.339844 826.265625 C 852.691406 830.40625 868.878906 835.0625 885.042969 839.871094 L 887.832031 840.691406 C 889.558594 841.199219 891.28125 841.714844 893.003906 842.234375 C 898.667969 843.941406 898.667969 843.941406 904.535156 843.945312 C 906.222656 842.101562 907.371094 840.558594 908.640625 838.453125 L 909.738281 836.710938 C 927.425781 808.183594 936.730469 777.621094 937.8125 744.105469 C 937.980469 732.09375 937.054688 720.261719 935.359375 708.375 L 934.941406 705.421875 L 934.511719 702.671875 L 934.136719 700.261719 C 933.472656 697.742188 932.460938 695.898438 930.988281 693.761719 Z M 675.839844 749.226562 C 674.242188 750.941406 672.695312 752.703125 671.199219 754.507812 L 669.824219 756.140625 C 668.875 757.265625 667.929688 758.390625 666.988281 759.515625 C 665.699219 761.050781 664.40625 762.582031 663.105469 764.105469 C 658.179688 769.898438 653.324219 775.75 648.535156 781.652344 L 645.921875 784.851562 C 638.648438 793.746094 638.648438 793.746094 631.578125 802.796875 C 629.535156 805.464844 627.359375 808.019531 625.042969 810.453125 C 620.878906 814.867188 620.878906 814.867188 617.8125 820.054688 C 617.894531 823.503906 618.71875 825.457031 620.347656 828.488281 L 622.078125 831.148438 L 623.652344 833.753906 C 625.3125 836.375 627.078125 838.878906 628.90625 841.386719 L 630.722656 843.941406 C 635.382812 850.351562 640.515625 856.144531 645.972656 861.867188 L 647.855469 863.886719 C 653.273438 869.535156 659.355469 874.242188 665.601562 878.933594 L 667.085938 880.058594 C 684.941406 893.507812 705.492188 902.910156 727.039062 908.800781 C 725.816406 901.027344 723.320312 893.683594 720.851562 886.242188 L 719.488281 882.082031 C 718.527344 879.140625 717.558594 876.199219 716.589844 873.257812 C 715.09375 868.6875 713.601562 864.113281 712.121094 859.539062 C 707.632812 845.710938 703.125 831.890625 698.5 818.105469 C 690.863281 795.328125 683.496094 772.511719 677.546875 749.226562 Z M 727.039062 822.613281 C 729.703125 830.832031 732.371094 839.046875 735.035156 847.265625 C 736.269531 851.0625 737.5 854.863281 738.730469 858.660156 C 745.734375 880.28125 745.734375 880.28125 752.855469 901.867188 L 753.8125 904.753906 C 754.097656 905.613281 754.382812 906.46875 754.679688 907.355469 L 755.429688 909.59375 C 756.019531 911.378906 756.019531 911.378906 756.90625 913.066406 C 789.875 913.996094 820.097656 908.109375 849.359375 892.34375 C 860.28125 886.167969 872.273438 878.105469 880.640625 868.691406 C 881.167969 866.929688 881.167969 866.929688 881.492188 865.28125 C 871.683594 862.15625 861.765625 859.425781 851.839844 856.695312 L 849.199219 855.964844 C 827.773438 850.050781 806.324219 844.210938 784.800781 838.667969 C 775.621094 836.300781 766.515625 833.679688 757.410156 831.054688 C 752.046875 829.503906 746.667969 828.011719 741.273438 826.570312 C 738.386719 825.789062 735.546875 824.859375 732.761719 823.777344 C 729.761719 822.464844 729.761719 822.464844 727.039062 822.613281 M 814.078125 355.839844 C 866.996094 358.132812 921.050781 377.769531 966.828125 403.625 L 968.964844 404.816406 C 979.476562 410.671875 989.457031 417.121094 999.253906 424.105469 L 1001.347656 425.597656 C 1010.414062 432.085938 1019.105469 438.859375 1027.414062 446.292969 L 1029.800781 448.425781 C 1031.148438 449.636719 1032.492188 450.851562 1033.832031 452.070312 C 1035.023438 453.144531 1036.222656 454.210938 1037.4375 455.257812 C 1041.996094 459.183594 1046.304688 463.320312 1050.558594 467.574219 L 1052.558594 469.539062 C 1061.546875 478.507812 1061.546875 478.507812 1063.253906 482.132812 C 1062.996094 485.273438 1061.917969 487.578125 1060.355469 490.28125 L 1059.113281 492.464844 L 1056.535156 496.933594 C 1053.914062 501.554688 1051.910156 506.035156 1050.453125 511.148438 C 1048.132812 510.664062 1047.09375 510.339844 1045.238281 508.769531 L 1043.359375 506.828125 L 1041.503906 504.929688 C 1039.875 503.164062 1038.28125 501.371094 1036.722656 499.546875 C 1033.015625 495.292969 1029.054688 491.296875 1025.066406 487.308594 C 1023.796875 486.035156 1022.53125 484.757812 1021.269531 483.476562 C 1016.554688 478.734375 1011.71875 474.332031 1006.464844 470.171875 C 1004.347656 468.460938 1002.359375 466.660156 1000.371094 464.800781 C 984.839844 450.726562 966.542969 439.609375 948.292969 429.46875 C 946.609375 428.519531 944.941406 427.546875 943.285156 426.550781 C 920.304688 412.835938 894.332031 404.0625 868.691406 396.800781 L 866.550781 396.191406 C 853.765625 392.664062 840.617188 390.71875 827.542969 388.617188 L 825.253906 388.242188 C 823.820312 388.007812 822.386719 387.777344 820.953125 387.554688 C 817.863281 387.046875 815.867188 386.613281 813.226562 384.851562 C 811.859375 380.75 812.214844 376.5625 812.214844 372.265625 L 812.179688 369.492188 C 812.171875 364.601562 812.410156 360.453125 814.078125 355.839844 M 1142.613281 484.691406 C 1152.570312 488.890625 1160.734375 495.867188 1167.359375 504.320312 C 1172.613281 511.886719 1175.496094 519.71875 1177.386719 528.695312 C 1178.238281 540.402344 1176.964844 551.605469 1172.117188 562.421875 C 1169.609375 567.058594 1166.472656 571.113281 1163.09375 575.148438 L 1161.5 577.066406 C 1155.460938 583.703125 1147.175781 587.984375 1138.773438 590.878906 C 1130.34375 593.519531 1121.601562 593.988281 1112.898438 592.511719 C 1103.113281 590.125 1094.148438 586.324219 1086.453125 579.734375 C 1077.3125 570.808594 1072.242188 560.871094 1068.753906 548.761719 C 1066.6875 539.148438 1067.726562 527.589844 1070.667969 518.300781 C 1074.769531 507.71875 1080.679688 499.570312 1089.285156 492.261719 C 1104.980469 480.582031 1124.40625 478.679688 1142.613281 484.691406 M 1107.625 511.148438 C 1102.855469 514.585938 1099.164062 518.136719 1096.480469 523.414062 C 1093.757812 529.519531 1093.421875 535.175781 1093.777344 541.773438 C 1094.351562 547.023438 1096.558594 551.796875 1099.203125 556.308594 C 1101.996094 560.078125 1106.109375 562.710938 1110.1875 564.90625 C 1114.742188 566.816406 1119.382812 567.980469 1124.34375 567.753906 C 1129.78125 566.996094 1134.589844 565.535156 1139.070312 562.296875 C 1144.082031 557.917969 1147.847656 553.695312 1150.078125 547.359375 C 1151.726562 541.300781 1151.882812 535.289062 1150.648438 529.132812 C 1148.964844 523.671875 1146.144531 519.710938 1142.195312 515.613281 C 1138.570312 512.386719 1134.546875 509.605469 1129.917969 508.046875 C 1122.214844 506.714844 1114.382812 507.03125 1107.625 511.144531 M 397.515625 897.949219 L 399.359375 898.558594 C 403.882812 903.902344 406.453125 911.179688 409.214844 917.53125 C 410.417969 920.292969 411.644531 923.042969 412.867188 925.792969 L 413.585938 927.414062 C 416.320312 933.550781 419.292969 939.539062 422.398438 945.492188 L 424.628906 949.8125 C 429.382812 959 434.328125 968.085938 439.464844 977.066406 L 441.171875 977.066406 L 441.738281 975.46875 C 444.480469 968.148438 447.714844 962.308594 453.707031 957.171875 C 458.015625 953.898438 462.449219 952.078125 467.625 950.613281 L 469.367188 950.117188 C 475.386719 948.832031 481.425781 949.832031 487.28125 951.421875 C 491.355469 952.863281 494.808594 954.996094 498.347656 957.441406 L 500.640625 958.933594 C 506.265625 964.410156 509.242188 970.324219 511.363281 977.824219 C 511.90625 980.082031 512.289062 982.296875 512.640625 984.585938 C 513.105469 986.726562 513.617188 988.035156 514.90625 989.816406 C 521.007812 996.21875 528.558594 1001.554688 535.714844 1006.71875 L 537.273438 1007.863281 C 538.25 1008.578125 539.238281 1009.28125 540.234375 1009.972656 C 541.566406 1010.953125 541.566406 1010.953125 543.574219 1012.90625 C 543.699219 1015.160156 543.699219 1015.160156 543.574219 1017.171875 C 538.972656 1017.277344 534.375 1017.355469 529.777344 1017.40625 C 528.214844 1017.429688 526.652344 1017.457031 525.09375 1017.496094 C 512.089844 1017.796875 512.089844 1017.796875 507.597656 1016.238281 C 505.804688 1015.230469 504.238281 1014.15625 502.613281 1012.90625 C 500.148438 1011.773438 500.148438 1011.773438 497.492188 1012.054688 C 495.335938 1013.015625 493.277344 1014.113281 491.191406 1015.226562 C 484.242188 1018.628906 476.132812 1018.609375 468.53125 1018.183594 C 459.546875 1017.386719 450.925781 1013.964844 442.507812 1010.933594 L 439.902344 1010.015625 C 433.460938 1007.605469 428.117188 1004.5625 423.542969 999.34375 C 422.253906 997.664062 421.0625 995.949219 419.894531 994.1875 L 418.589844 992.277344 C 417.285156 990.34375 415.992188 988.40625 414.71875 986.453125 L 413.566406 984.699219 C 401.914062 966.808594 392.113281 947.710938 383.574219 928.160156 L 382.515625 925.738281 C 377.210938 913.398438 377.210938 913.398438 377.121094 908.585938 C 378.027344 906.238281 378.027344 906.238281 380.105469 904 C 384.914062 900.445312 391.433594 897.484375 397.519531 897.949219 M 468.480469 972.800781 C 465.109375 976.09375 463.046875 979.332031 461.652344 983.894531 C 461.503906 987.230469 461.945312 990.203125 463.214844 993.300781 C 464.429688 995.589844 465.761719 997.402344 467.679688 999.148438 C 470.03125 1000.511719 471.902344 1000.960938 474.613281 1001.171875 C 478.394531 1000.925781 481.386719 1000.269531 484.691406 998.398438 C 487.167969 996.164062 488.75 993.910156 489.8125 990.71875 C 490.199219 987.144531 490.265625 983.695312 489.230469 980.230469 C 487.878906 977.242188 486.527344 975.472656 484.054688 973.28125 C 478.71875 970.714844 474.011719 970.398438 468.480469 972.800781 M 1185.28125 585.386719 L 1186.988281 585.386719 C 1189.40625 591.066406 1191.378906 596.898438 1192.90625 602.878906 L 1193.5625 605.429688 C 1197.828125 622.410156 1200.679688 639.753906 1203.199219 657.066406 L 1203.566406 659.578125 C 1207.21875 685.308594 1207.902344 711.328125 1207.464844 737.28125 L 1207.417969 740.59375 C 1207.207031 752.632812 1206.601562 764.601562 1205.441406 776.585938 L 1205.144531 779.753906 L 1204.832031 782.695312 L 1204.566406 785.277344 C 1203.871094 788.46875 1202.347656 790.738281 1200.425781 793.332031 C 1198.097656 795.082031 1195.789062 795.546875 1192.960938 796.160156 C 1188.242188 796.695312 1184.703125 795.621094 1180.421875 793.777344 C 1177.792969 792.398438 1176.035156 790.789062 1174.1875 788.480469 C 1172.960938 786.5 1172.488281 785.144531 1172.253906 782.808594 C 1172.285156 776.40625 1172.695312 770.109375 1173.28125 763.734375 C 1177.496094 717.746094 1174.851562 672.027344 1165.273438 626.878906 C 1164.558594 623.507812 1163.867188 620.128906 1163.199219 616.746094 L 1162.566406 613.640625 C 1162.234375 610.941406 1162.328125 609.308594 1163.09375 606.71875 C 1164.390625 605.28125 1164.390625 605.28125 1166.058594 603.96875 C 1168.796875 601.71875 1171.402344 599.328125 1173.886719 596.804688 L 1175.898438 594.761719 C 1177.265625 593.359375 1178.636719 591.957031 1180.003906 590.554688 C 1180.660156 589.890625 1181.316406 589.222656 1181.992188 588.535156 L 1183.785156 586.703125 Z M 1185.28125 585.386719 " fill-opacity="1" fill-rule="nonzero"/><path fill="#00357a" d="M 413.867188 735.574219 C 416.265625 737.171875 416.265625 737.171875 418.132812 738.988281 C 419.105469 741.902344 419.179688 744.300781 419.292969 747.375 L 419.449219 751.046875 L 419.535156 753.011719 C 421.898438 805.285156 434.132812 855.074219 456.851562 902.292969 L 458.28125 905.28125 C 460.890625 910.710938 463.605469 915.996094 466.703125 921.164062 C 467.8125 923.742188 467.847656 925.644531 467.625 928.425781 C 466.050781 931.609375 463.449219 933.765625 460.535156 935.726562 C 457.148438 937.597656 453.839844 938.984375 449.972656 939.414062 C 448.074219 939.273438 448.074219 939.273438 446.292969 938.667969 C 440.511719 934.066406 437.550781 925.832031 434.4375 919.289062 C 433.339844 917.019531 432.195312 914.777344 431.054688 912.535156 C 406.957031 864.390625 393.539062 808.925781 391.679688 755.199219 L 391.609375 753.285156 C 391.542969 751.292969 391.5 749.300781 391.464844 747.304688 L 391.410156 745.453125 C 391.394531 742.972656 391.566406 740.964844 392.53125 738.671875 C 394.65625 736.941406 396.703125 736.492188 399.371094 736.027344 C 400.34375 735.882812 400.34375 735.882812 401.332031 735.734375 L 403.265625 735.386719 C 407.003906 734.773438 410.144531 734.59375 413.867188 735.574219 M 978.773438 343.894531 C 982.367188 344.253906 985.0625 345.140625 988.214844 346.867188 L 990.671875 348.203125 L 993.28125 349.652344 C 994.628906 350.394531 994.628906 350.394531 996.007812 351.15625 C 1018.359375 363.527344 1039.179688 377.242188 1058.988281 393.386719 L 1061.199219 395.148438 C 1066.652344 399.53125 1071.804688 404.164062 1076.910156 408.9375 C 1078.894531 410.785156 1080.921875 412.589844 1082.988281 414.347656 C 1089.089844 419.636719 1094.773438 425.460938 1100.007812 431.609375 C 1101.308594 433.09375 1102.636719 434.554688 1103.992188 435.988281 C 1108.464844 440.730469 1112.789062 445.523438 1116.800781 450.667969 L 1117.914062 452.074219 C 1118.800781 453.238281 1119.621094 454.457031 1120.425781 455.679688 L 1120.425781 458.238281 C 1116.648438 458.953125 1112.867188 459.667969 1109.089844 460.382812 C 1107.804688 460.621094 1106.519531 460.863281 1105.238281 461.109375 C 1103.382812 461.457031 1101.53125 461.808594 1099.675781 462.15625 L 1097.960938 462.484375 C 1096.347656 462.785156 1094.734375 463.074219 1093.121094 463.359375 L 1090.050781 464.144531 L 1087.148438 464.214844 C 1085.046875 462.75 1083.613281 461.523438 1081.898438 459.691406 L 1080.488281 458.265625 C 1079.511719 457.269531 1078.542969 456.265625 1077.582031 455.257812 C 1076.101562 453.710938 1074.609375 452.175781 1073.105469 450.65625 C 1072.160156 449.683594 1071.214844 448.714844 1070.269531 447.742188 L 1068.914062 446.347656 C 1067.84375 445.222656 1066.824219 444.054688 1065.8125 442.878906 L 1065.8125 441.171875 L 1064.296875 440.511719 C 1062.226562 439.371094 1060.972656 438.148438 1059.359375 436.425781 C 1055.957031 432.925781 1052.292969 429.890625 1048.488281 426.839844 C 1046.484375 425.203125 1044.570312 423.511719 1042.667969 421.761719 C 1022.515625 403.710938 998.988281 389.773438 975.402344 376.785156 L 972.765625 375.328125 L 970.414062 374.035156 C 968.535156 372.90625 968.535156 372.90625 966.828125 371.199219 C 966.410156 368.242188 966.949219 365.539062 967.679688 362.667969 C 970.183594 356.492188 973.410156 350.316406 977.066406 344.746094 Z M 1036.800781 874.667969 C 1039.492188 874.773438 1039.492188 874.773438 1042.347656 875.519531 L 1045.199219 876.214844 C 1048.074219 877.292969 1049.945312 878.523438 1052.160156 880.640625 L 1052.160156 882.347656 L 1053.8125 883.148438 C 1055.574219 884.054688 1055.574219 884.054688 1056.425781 884.90625 C 1056.035156 895.277344 1050.171875 904.398438 1044.960938 913.066406 L 1044.0625 914.570312 C 1038.390625 924.058594 1032.273438 933.183594 1025.707031 942.078125 L 1024.527344 943.683594 C 1012.246094 960.296875 997.996094 976.636719 982.238281 990.050781 C 980.195312 991.820312 978.238281 993.671875 976.265625 995.519531 C 970.046875 1001.1875 963.324219 1006.171875 956.585938 1011.199219 L 953.320312 1013.664062 C 945.546875 1019.484375 937.503906 1024.816406 929.28125 1029.972656 L 927.449219 1031.128906 C 925.699219 1032.230469 923.945312 1033.320312 922.1875 1034.402344 L 920.59375 1035.402344 C 919.257812 1036.210938 917.871094 1036.9375 916.480469 1037.652344 L 913.066406 1037.652344 C 913.910156 1034.804688 914.765625 1031.960938 915.625 1029.121094 L 916.113281 1027.488281 C 917.246094 1023.707031 918.417969 1019.941406 919.632812 1016.183594 C 920.054688 1014.855469 920.464844 1013.523438 920.859375 1012.1875 C 924.339844 1000.519531 924.339844 1000.519531 928.316406 996.558594 C 930.769531 994.398438 933.402344 992.546875 936.105469 990.71875 C 937.84375 989.4375 939.558594 988.132812 941.28125 986.828125 C 942.125 986.199219 942.972656 985.570312 943.84375 984.921875 C 950.773438 979.710938 957.246094 974.058594 963.59375 968.164062 C 965.578125 966.335938 967.59375 964.570312 969.652344 962.828125 C 972.425781 960.421875 974.777344 957.8125 977.148438 955.011719 C 978.988281 952.929688 980.941406 951.007812 982.933594 949.066406 C 987.316406 944.722656 991.152344 940.078125 994.988281 935.253906 C 995.765625 934.316406 996.542969 933.378906 997.324219 932.441406 C 1009.035156 918.296875 1018.773438 902.671875 1027.597656 886.59375 L 1028.515625 884.941406 C 1029.324219 883.46875 1030.125 881.996094 1030.921875 880.515625 C 1032.679688 877.855469 1034.035156 876.269531 1036.800781 874.667969 M 814.933594 234.667969 C 817.269531 234.738281 819.597656 234.917969 821.921875 235.199219 L 824.171875 235.449219 C 826.785156 235.746094 829.390625 236.058594 832 236.375 L 835 236.726562 C 850.292969 238.550781 865.464844 240.777344 880.613281 243.578125 C 882.308594 243.890625 884.003906 244.1875 885.703125 244.46875 L 888.011719 244.875 L 890.011719 245.207031 C 891.734375 245.761719 891.734375 245.761719 893.222656 246.863281 C 894.292969 248.320312 894.292969 248.320312 894.65625 250.027344 C 894.652344 256.535156 893.011719 262.261719 891.039062 268.425781 L 890.117188 271.496094 C 888.390625 277.027344 888.390625 277.027344 887.464844 279.039062 C 884.90625 279.894531 884.90625 279.894531 882.625 279.585938 L 879.824219 279.007812 L 876.617188 278.363281 L 874.894531 278.011719 C 860.210938 275.039062 845.453125 273.046875 830.59375 271.191406 C 826.492188 270.679688 822.394531 270.148438 818.300781 269.585938 L 815.386719 269.1875 L 813.226562 268.800781 L 812.375 267.945312 C 812.289062 266.414062 812.261719 264.875 812.261719 263.339844 L 812.257812 260.441406 L 812.265625 257.386719 L 812.257812 254.429688 C 812.273438 241.320312 812.273438 241.320312 813.226562 236.375 Z M 395.09375 441.171875 L 398.402344 441.246094 C 399.558594 441.292969 400.710938 441.335938 401.867188 441.386719 L 405.089844 441.507812 C 407.894531 442.027344 407.894531 442.027344 409.746094 443.300781 C 411.308594 445.441406 411.308594 445.441406 411.761719 448.816406 C 411.789062 450.175781 411.800781 451.539062 411.789062 452.902344 L 411.808594 455.097656 C 411.8125 456.625 411.808594 458.152344 411.796875 459.683594 C 411.785156 462.015625 411.816406 464.347656 411.847656 466.683594 C 411.847656 468.167969 411.847656 469.65625 411.84375 471.144531 L 411.878906 473.25 C 411.847656 475.164062 411.753906 476.855469 411.304688 478.71875 C 409.300781 481.285156 409.300781 481.285156 407.039062 482.988281 C 404.84375 483.582031 403.300781 483.789062 401.066406 483.839844 L 398.695312 483.910156 C 393.367188 483.984375 388.042969 483.820312 382.71875 483.574219 L 379.332031 483.421875 C 376.320312 482.988281 376.320312 482.988281 373.949219 481.9375 C 371.695312 480.140625 370.75 478.761719 369.496094 476.160156 C 369.238281 473.964844 369.117188 471.757812 369.125 469.546875 L 369.109375 467.644531 C 369.105469 466.320312 369.105469 465 369.113281 463.675781 C 369.121094 461.660156 369.097656 459.644531 369.070312 457.625 C 369.066406 456.335938 369.066406 455.050781 369.070312 453.761719 L 369.042969 451.945312 C 369.066406 450.226562 369.066406 450.226562 369.496094 447.148438 C 371.121094 444.652344 371.121094 444.652344 372.90625 442.878906 C 378.945312 439.863281 388.417969 440.980469 395.09375 441.171875 " fill-opacity="1" fill-rule="nonzero"/><path fill="#00357a" d="M 1279.148438 362.667969 L 1280.851562 362.667969 C 1281.511719 374.539062 1281.832031 386.421875 1281.816406 398.316406 L 1281.820312 403.441406 C 1281.820312 408.078125 1281.820312 412.71875 1281.820312 417.355469 C 1281.816406 422.378906 1281.820312 427.402344 1281.820312 432.429688 C 1281.824219 442.25 1281.824219 452.070312 1281.820312 461.890625 C 1281.820312 469.882812 1281.820312 477.871094 1281.820312 485.859375 L 1281.820312 494.523438 C 1281.824219 516.179688 1281.824219 537.832031 1281.816406 559.488281 C 1281.8125 578.679688 1281.8125 597.875 1281.816406 617.070312 C 1281.824219 641.566406 1281.824219 666.0625 1281.820312 690.5625 C 1281.820312 699.105469 1281.820312 707.648438 1281.824219 716.1875 C 1281.824219 725.914062 1281.824219 735.640625 1281.820312 745.367188 C 1281.816406 750.320312 1281.816406 755.277344 1281.820312 760.230469 C 1281.839844 798.347656 1281.839844 798.347656 1280.851562 814.933594 L 1279.148438 814.078125 C 1279.050781 771.511719 1278.957031 728.941406 1278.867188 686.371094 L 1278.863281 684.464844 L 1278.730469 621.25 C 1278.683594 599.589844 1278.636719 577.933594 1278.589844 556.277344 C 1278.542969 530.882812 1278.488281 505.492188 1278.425781 480.101562 L 1278.421875 478.226562 C 1278.402344 468.265625 1278.378906 458.304688 1278.355469 448.34375 C 1278.335938 438.332031 1278.3125 428.324219 1278.292969 418.316406 C 1278.285156 412.890625 1278.273438 407.464844 1278.257812 402.039062 C 1278.242188 397.078125 1278.234375 392.117188 1278.226562 387.152344 C 1278.226562 385.355469 1278.21875 383.554688 1278.214844 381.753906 C 1278.207031 379.316406 1278.203125 376.878906 1278.203125 374.441406 L 1278.191406 372.300781 C 1278.195312 368.980469 1278.332031 365.890625 1279.148438 362.667969 " fill-opacity="1" fill-rule="nonzero"/><path fill="#1800ad" d="M 300.375 573.441406 L 551.253906 573.441406 L 552.105469 575.148438 C 546.761719 576.097656 541.535156 576.117188 536.117188 576.101562 L 533.070312 576.105469 C 530.292969 576.105469 527.515625 576.101562 524.734375 576.097656 C 521.734375 576.097656 518.734375 576.09375 515.730469 576.097656 C 510.535156 576.097656 505.339844 576.09375 500.144531 576.089844 C 492.632812 576.082031 485.121094 576.078125 477.609375 576.082031 C 465.421875 576.078125 453.234375 576.074219 441.046875 576.0625 C 429.210938 576.054688 417.371094 576.050781 405.535156 576.046875 L 403.320312 576.046875 L 392.335938 576.042969 C 361.964844 576.035156 331.597656 576.023438 301.226562 576 Z M 785.921875 202.238281 L 787.625 203.09375 C 788.496094 217.070312 788.613281 231.03125 788.589844 245.03125 C 788.585938 248.078125 788.589844 251.125 788.59375 254.171875 C 788.613281 267.886719 788.425781 281.558594 787.625 295.253906 L 785.066406 294.398438 C 785.046875 282.507812 785.03125 270.621094 785.023438 258.730469 C 785.019531 253.207031 785.011719 247.6875 785.003906 242.167969 C 784.992188 236.847656 784.988281 231.523438 784.984375 226.199219 C 784.984375 224.164062 784.980469 222.128906 784.976562 220.09375 C 784.972656 217.253906 784.96875 214.410156 784.96875 211.570312 L 784.960938 208.992188 L 784.964844 206.660156 L 784.960938 204.625 L 785.066406 203.09375 Z M 1279.148438 362.667969 L 1280.851562 362.667969 C 1280.921875 376.699219 1280.707031 390.71875 1280.425781 404.746094 L 1280.304688 411.160156 C 1280.203125 416.328125 1280.101562 421.5 1280 426.667969 L 1279.148438 426.667969 C 1279.015625 418.953125 1278.890625 411.238281 1278.769531 403.523438 C 1278.710938 399.941406 1278.65625 396.359375 1278.59375 392.777344 C 1278.535156 389.316406 1278.480469 385.859375 1278.425781 382.402344 C 1278.40625 381.082031 1278.382812 379.765625 1278.359375 378.445312 C 1278.328125 376.597656 1278.300781 374.75 1278.277344 372.902344 L 1278.222656 369.714844 C 1278.285156 367.238281 1278.566406 365.066406 1279.148438 362.667969 " fill-opacity="1" fill-rule="nonzero"/></svg>